<?xml version="1.0" encoding="UTF-8" standalone="no"?>
<!DOCTYPE svg PUBLIC "-//W3C//DTD SVG 1.1//EN" "http://www.w3.org/Graphics/SVG/1.1/DTD/svg11.dtd">
<svg xmlns="http://www.w3.org/2000/svg" version="1.1" viewBox="0.00 0.00 500.00 500.00">
<g stroke-width="2.00" fill="none" stroke-linecap="butt">
<path stroke="#fe81ae" vector-effect="non-scaling-stroke" d="
  M 149.69 131.59
  L 149.56 99.33"
/>
<path stroke="#98b3d9" vector-effect="non-scaling-stroke" d="
  M 130.34 131.69
  L 107.44 131.75"
/>
<path stroke="#90e8f5" vector-effect="non-scaling-stroke" d="
  M 107.53 99.09
  L 107.44 131.75"
/>
<path stroke="#299ccf" vector-effect="non-scaling-stroke" d="
  M 107.44 131.75
  L 98.98 131.88"
/>
<path stroke="#983587" vector-effect="non-scaling-stroke" d="
  M 164.43 141.13
  Q 163.28 144.40 161.99 147.45
  Q 161.43 148.78 161.43 150.16
  Q 161.43 151.67 161.45 152.97"
/>
<path stroke="#299ccf" vector-effect="non-scaling-stroke" d="
  M 161.45 152.97
  L 146.44 152.60"
/>
<path stroke="#98b3d9" vector-effect="non-scaling-stroke" d="
  M 146.44 152.60
  L 107.62 152.56"
/>
<path stroke="#98b3d9" vector-effect="non-scaling-stroke" d="
  M 98.87 141.22
  L 98.60 132.30"
/>
<path stroke="#9e1270" vector-effect="non-scaling-stroke" d="
  M 186.51 158.60
  Q 186.18 158.76 185.63 158.49
  Q 185.21 158.28 184.74 158.29
  L 176.78 158.50
  Q 175.53 158.53 176.07 159.65
  L 177.79 163.26
  Q 178.40 164.53 179.80 164.69
  Q 184.32 165.19 188.10 163.86"
/>
<path stroke="#9e1270" vector-effect="non-scaling-stroke" d="
  M 198.82 181.29
  Q 198.71 181.77 198.00 181.77
  Q 188.63 181.75 179.25 181.87
  Q 178.87 181.88 177.76 181.53"
/>
<path stroke="#983b8c" vector-effect="non-scaling-stroke" d="
  M 177.76 181.53
  Q 177.70 181.36 177.61 181.29"
/>
<path stroke="#fe81ae" vector-effect="non-scaling-stroke" d="
  M 177.61 181.29
  L 173.11 173.69"
/>
<path stroke="#9f1d7a" vector-effect="non-scaling-stroke" d="
  M 173.11 173.69
  L 170.08 167.32
  A 1.02 1.02 0.0 0 1 171.09 165.86
  Q 174.03 166.12 177.07 165.69
  Q 177.34 165.65 177.31 165.37
  L 177.28 165.06
  Q 177.27 164.97 177.18 164.98
  Q 174.23 165.14 171.26 165.40
  Q 169.81 165.52 168.43 164.83"
/>
<path stroke="#906aa4" vector-effect="non-scaling-stroke" d="
  M 168.43 164.83
  L 161.45 152.97"
/>
<path stroke="#90e8f5" vector-effect="non-scaling-stroke" d="
  M 146.44 152.60
  Q 146.06 154.95 144.70 157.55
  A 1.80 1.77 -75.7 0 1 143.11 158.51
  L 131.14 158.50"
/>
<path stroke="#98b9dd" vector-effect="non-scaling-stroke" d="
  M 131.14 158.50
  L 108.91 158.58"
/>
<path stroke="#3084c2" vector-effect="non-scaling-stroke" d="
  M 168.43 164.83
  L 130.48 164.86"
/>
<path stroke="#29a2d3" vector-effect="non-scaling-stroke" d="
  M 130.12 164.29
  L 131.14 158.50"
/>
<path stroke="#384b9f" vector-effect="non-scaling-stroke" d="
  M 177.76 181.53
  Q 177.65 182.22 177.81 182.50
  Q 180.43 186.88 183.03 191.33"
/>
<path stroke="#983b8c" vector-effect="non-scaling-stroke" d="
  M 183.03 191.33
  Q 183.44 191.45 183.27 192.23"
/>
<path stroke="#29a2d3" vector-effect="non-scaling-stroke" d="
  M 183.27 192.23
  Q 180.25 191.63 174.25 191.73
  Q 167.31 191.85 142.63 191.43
  A 0.96 0.91 -61.8 0 0 142.03 191.63
  Q 141.87 191.75 141.68 191.81"
/>
<path stroke="#334391" vector-effect="non-scaling-stroke" d="
  M 141.68 191.81
  Q 141.06 191.38 140.00 191.34
  Q 135.68 191.19 131.34 191.32
  Q 130.97 191.33 130.67 191.56
  L 130.40 191.78"
/>
<path stroke="#98b9dd" vector-effect="non-scaling-stroke" d="
  M 130.40 191.78
  L 107.58 191.51"
/>
<path stroke="#29a2d3" vector-effect="non-scaling-stroke" d="
  M 107.58 191.51
  L 107.19 191.26"
/>
<path stroke="#98b9dd" vector-effect="non-scaling-stroke" d="
  M 177.61 181.29
  Q 177.74 181.85 177.25 181.86
  Q 151.05 182.12 107.96 181.95"
/>
<path stroke="#90e8f5" vector-effect="non-scaling-stroke" d="
  M 107.96 181.95
  Q 107.78 182.00 107.57 181.70
  Q 107.45 181.53 107.45 181.28
  Q 107.48 177.56 107.63 173.75"
/>
<path stroke="#9e91c1" vector-effect="non-scaling-stroke" d="
  M 210.25 202.00
  L 197.60 201.97"
/>
<path stroke="#9e1270" vector-effect="non-scaling-stroke" d="
  M 197.60 201.97
  Q 196.14 197.35 193.61 193.16
  Q 192.30 190.99 189.75 191.09
  Q 186.40 191.22 183.03 191.33"
/>
<path stroke="#9f9bcc" vector-effect="non-scaling-stroke" d="
  M 173.11 173.69
  L 129.78 173.71"
/>
<path stroke="#90e8f5" vector-effect="non-scaling-stroke" d="
  M 188.98 201.88
  L 173.35 201.62
  A 0.38 0.38 0.0 0 0 173.01 202.17
  L 177.51 210.71"
/>
<path stroke="#fe81ae" vector-effect="non-scaling-stroke" d="
  M 197.60 201.97
  L 188.98 201.88"
/>
<path stroke="#906aa4" vector-effect="non-scaling-stroke" d="
  M 188.98 201.88
  L 183.27 192.23"
/>
<path stroke="#2b72a9" vector-effect="non-scaling-stroke" d="
  M 141.68 191.81
  L 151.10 208.93"
/>
<path stroke="#334391" vector-effect="non-scaling-stroke" d="
  M 130.45 211.00
  Q 130.26 210.43 130.47 210.21"
/>
<path stroke="#9989b3" vector-effect="non-scaling-stroke" d="
  M 130.47 210.21
  L 130.40 191.78"
/>
<path stroke="#98b9dd" vector-effect="non-scaling-stroke" d="
  M 130.47 210.21
  Q 129.92 210.71 128.75 210.71
  Q 120.47 210.72 113.19 210.78"
/>
<path stroke="#90e8f5" vector-effect="non-scaling-stroke" d="
  M 107.58 191.51
  L 107.53 210.80"
/>
<path stroke="#29a2d3" vector-effect="non-scaling-stroke" d="
  M 107.96 181.95
  Q 107.79 182.32 107.48 182.14"
/>
<path stroke="#fe81ae" vector-effect="non-scaling-stroke" d="
  M 210.25 202.00
  L 214.67 209.71
  Q 215.14 210.52 214.19 210.52
  L 193.58 210.55"
/>
<path stroke="#990a61" vector-effect="non-scaling-stroke" d="
  M 220.98 221.19
  Q 220.72 221.19 220.48 221.15
  Q 220.32 221.12 220.46 221.04
  Q 220.51 221.01 220.51 220.95
  Q 220.51 220.75 220.30 220.74
  Q 215.32 220.60 210.41 221.03"
/>
<path stroke="#fe81ae" vector-effect="non-scaling-stroke" d="
  M 210.41 221.03
  L 199.83 221.24"
/>
<path stroke="#983b8c" vector-effect="non-scaling-stroke" d="
  M 199.83 221.24
  Q 198.59 220.75 198.83 221.10"
/>
<path stroke="#990a61" vector-effect="non-scaling-stroke" d="
  M 224.59 227.78
  Q 219.44 228.58 214.61 227.88"
/>
<path stroke="#9989b3" vector-effect="non-scaling-stroke" d="
  M 214.61 227.88
  L 210.41 221.03"
/>
<path stroke="#98b9dd" vector-effect="non-scaling-stroke" d="
  M 199.83 221.24
  L 202.36 226.54"
/>
<path stroke="#29a2d3" vector-effect="non-scaling-stroke" d="
  M 202.36 226.54
  Q 202.27 226.85 202.01 226.81
  Q 193.79 225.56 185.48 226.12
  Q 185.24 226.14 185.04 226.25
  Q 184.87 226.35 184.65 226.48"
/>
<path stroke="#98b9dd" vector-effect="non-scaling-stroke" d="
  M 184.65 226.48
  Q 184.00 226.01 183.50 226.02
  Q 178.38 226.15 173.22 226.05
  Q 172.72 226.04 172.38 225.67
  Q 170.61 223.73 169.65 221.22"
/>
<path stroke="#fe81ae" vector-effect="non-scaling-stroke" d="
  M 214.61 227.88
  L 203.20 227.87"
/>
<path stroke="#90e8f5" vector-effect="non-scaling-stroke" d="
  M 203.20 227.87
  Q 203.00 227.17 202.36 226.54"
/>
<path stroke="#9f1d7a" vector-effect="non-scaling-stroke" d="
  M 228.15 234.32
  Q 218.62 234.13 209.00 234.20
  Q 208.28 234.20 206.76 233.56"
/>
<path stroke="#90e8f5" vector-effect="non-scaling-stroke" d="
  M 184.65 226.48
  Q 186.12 230.74 189.53 234.08"
/>
<path stroke="#906aa4" vector-effect="non-scaling-stroke" d="
  M 203.20 227.87
  L 206.76 233.56"
/>
<path stroke="#3084c2" vector-effect="non-scaling-stroke" d="
  M 206.76 233.56
  Q 206.88 233.88 206.58 234.06"
/>
<path stroke="#3855aa" vector-effect="non-scaling-stroke" d="
  M 233.73 242.95
  L 213.43 242.47
  Q 211.37 242.42 212.43 244.19
  C 214.88 248.28 217.49 252.17 219.45 256.64
  A 0.70 0.70 0.0 0 1 218.63 257.60
  Q 214.09 256.45 209.12 257.53"
/>
<path stroke="#3084c2" vector-effect="non-scaling-stroke" d="
  M 209.12 257.53
  Q 207.41 255.21 205.96 252.49
  C 204.87 250.44 203.01 251.14 201.14 251.05
  A 1.19 1.18 -16.5 0 1 200.25 250.57
  Q 197.85 247.30 196.87 243.13"
/>
<path stroke="#983b8c" vector-effect="non-scaling-stroke" d="
  M 241.47 257.20
  L 222.13 257.07
  A 1.41 1.41 0.0 0 0 220.90 259.19
  L 223.57 263.79"
/>
<path stroke="#334391" vector-effect="non-scaling-stroke" d="
  M 223.57 263.79
  L 227.26 269.97"
/>
<path stroke="#29a2d3" vector-effect="non-scaling-stroke" d="
  M 203.99 269.86
  Q 207.49 270.48 203.78 264.85
  A 0.56 0.56 0.0 0 1 204.26 263.98
  L 212.34 264.16
  A 0.78 0.77 -17.2 0 0 212.99 262.94
  L 209.12 257.53"
/>
<path stroke="#990a61" vector-effect="non-scaling-stroke" d="
  M 245.74 263.78
  L 223.57 263.79"
/>
<path stroke="#983587" vector-effect="non-scaling-stroke" d="
  M 396.11 135.57
  L 381.56 135.42
  A 1.84 1.84 0.0 0 1 379.74 133.64
  L 379.32 122.11"
/>
<path stroke="#fe81ae" vector-effect="non-scaling-stroke" d="
  M 379.32 122.11
  Q 379.87 122.21 380.73 121.86
  A 0.29 0.29 0.0 0 0 380.76 121.33
  L 380.27 121.07
  A 0.89 0.88 -78.3 0 1 379.79 120.33
  C 379.50 115.67 379.15 112.92 382.33 110.08"
/>
<path stroke="#906aa4" vector-effect="non-scaling-stroke" d="
  M 382.33 110.08
  Q 385.35 106.42 389.16 103.66
  Q 390.85 102.44 390.25 99.06"
/>
<path stroke="#2c7abb" vector-effect="non-scaling-stroke" d="
  M 396.19 141.10
  L 374.05 141.06"
/>
<path stroke="#299ccf" vector-effect="non-scaling-stroke" d="
  M 374.05 141.06
  L 351.86 141.26
  Q 350.72 141.27 351.29 140.28
  L 356.27 131.76"
/>
<path stroke="#90e8f5" vector-effect="non-scaling-stroke" d="
  M 382.33 110.08
  Q 368.62 110.87 354.90 110.24
  Q 354.17 110.21 353.80 110.85
  L 347.45 122.19"
/>
<path stroke="#98b3d9" vector-effect="non-scaling-stroke" d="
  M 379.32 122.11
  L 361.25 122.11"
/>
<path stroke="#924790" vector-effect="non-scaling-stroke" d="
  M 395.98 152.64
  L 380.09 152.51"
/>
<path stroke="#2d4f95" vector-effect="non-scaling-stroke" d="
  M 380.09 152.51
  L 368.74 152.39"
/>
<path stroke="#2c80c0" vector-effect="non-scaling-stroke" d="
  M 368.74 152.39
  L 367.36 152.20"
/>
<path stroke="#24afd8" vector-effect="non-scaling-stroke" d="
  M 374.05 141.06
  L 367.36 152.20"
/>
<path stroke="#29a2d3" vector-effect="non-scaling-stroke" d="
  M 367.36 152.20
  L 348.31 152.55
  Q 347.96 152.55 347.78 152.86
  L 345.76 156.45
  A 0.26 0.26 0.0 0 0 346.00 156.84
  L 351.95 156.40
  A 0.60 0.59 -5.0 0 1 352.59 156.93
  Q 352.66 157.63 351.53 158.99"
/>
<path stroke="#24afd8" vector-effect="non-scaling-stroke" d="
  M 351.53 158.99
  Q 347.51 163.41 349.09 164.68"
/>
<path stroke="#90e8f5" vector-effect="non-scaling-stroke" d="
  M 349.09 164.68
  L 316.18 165.01"
/>
<path stroke="#334391" vector-effect="non-scaling-stroke" d="
  M 368.74 152.39
  Q 366.73 152.25 365.94 153.73
  Q 364.50 156.43 363.46 158.54"
/>
<path stroke="#2c80c0" vector-effect="non-scaling-stroke" d="
  M 363.46 158.54
  L 351.53 158.99"
/>
<path stroke="#990a61" vector-effect="non-scaling-stroke" d="
  M 380.09 152.51
  L 379.61 163.72
  A 0.86 0.86 0.0 0 1 378.75 164.55
  L 359.78 164.71"
/>
<path stroke="#2d4f95" vector-effect="non-scaling-stroke" d="
  M 359.78 164.71
  L 363.46 158.54"
/>
<path stroke="#fe81ae" vector-effect="non-scaling-stroke" d="
  M 396.05 173.40
  L 379.51 173.37"
/>
<path stroke="#9f1d7a" vector-effect="non-scaling-stroke" d="
  M 379.51 173.37
  L 356.90 173.59
  Q 356.41 173.60 355.97 173.39
  Q 355.51 173.17 355.01 173.11"
/>
<path stroke="#fe81ae" vector-effect="non-scaling-stroke" d="
  M 355.01 173.11
  L 360.01 164.36"
/>
<path stroke="#924790" vector-effect="non-scaling-stroke" d="
  M 360.01 164.36
  Q 359.90 164.54 359.78 164.71"
/>
<path stroke="#9f9bcc" vector-effect="non-scaling-stroke" d="
  M 355.01 173.11
  Q 354.41 173.39 353.74 173.30"
/>
<path stroke="#98b9dd" vector-effect="non-scaling-stroke" d="
  M 353.74 173.30
  L 330.55 173.07"
/>
<path stroke="#90e8f5" vector-effect="non-scaling-stroke" d="
  M 330.55 173.07
  L 311.79 172.94"
/>
<path stroke="#92c6e2" vector-effect="non-scaling-stroke" d="
  M 360.01 164.36
  L 349.09 164.68"
/>
<path stroke="#fe81ae" vector-effect="non-scaling-stroke" d="
  M 396.24 181.03
  Q 396.12 181.50 395.50 181.50
  Q 387.67 181.45 379.73 181.64"
/>
<path stroke="#9f9bcc" vector-effect="non-scaling-stroke" d="
  M 379.51 173.37
  L 379.73 181.64"
/>
<path stroke="#9f1d7a" vector-effect="non-scaling-stroke" d="
  M 379.73 181.64
  Q 379.11 187.00 380.43 191.31"
/>
<path stroke="#3362ae" vector-effect="non-scaling-stroke" d="
  M 379.86 192.27
  Q 379.46 192.28 379.39 191.90
  Q 379.31 191.50 378.91 191.52
  L 366.79 191.93"
/>
<path stroke="#3a257f" vector-effect="non-scaling-stroke" d="
  M 366.79 191.93
  Q 366.76 191.75 366.29 191.48
  Q 365.97 191.29 365.60 191.30
  Q 356.56 191.60 347.71 191.27
  Q 347.57 191.27 347.45 191.18
  L 347.19 190.95
  Q 346.97 190.77 346.71 190.88
  Q 345.61 191.36 344.19 191.39"
/>
<path stroke="#9f9bcc" vector-effect="non-scaling-stroke" d="
  M 344.19 191.39
  Q 344.37 191.20 344.15 190.77
  Q 344.06 190.61 343.88 190.63
  Q 343.70 190.65 343.65 190.74"
/>
<path stroke="#3855aa" vector-effect="non-scaling-stroke" d="
  M 353.74 173.30
  C 353.97 174.00 354.00 174.65 353.62 175.34
  Q 351.28 179.49 349.30 182.07"
/>
<path stroke="#29a2d3" vector-effect="non-scaling-stroke" d="
  M 330.55 173.07
  Q 330.64 177.01 327.44 180.31
  A 0.84 0.84 0.0 0 0 328.03 181.73
  L 349.30 182.07"
/>
<path stroke="#3084c2" vector-effect="non-scaling-stroke" d="
  M 349.30 182.07
  L 343.65 190.74"
/>
<path stroke="#90e8f5" vector-effect="non-scaling-stroke" d="
  M 343.65 190.74
  Q 342.30 191.13 341.74 191.14
  Q 321.76 191.39 301.79 191.25"
/>
<path stroke="#924790" vector-effect="non-scaling-stroke" d="
  M 380.13 210.58
  Q 379.84 211.03 379.37 211.16"
/>
<path stroke="#924790" vector-effect="non-scaling-stroke" d="
  M 379.47 221.03
  Q 379.99 221.76 379.69 221.29"
/>
<path stroke="#92c6e2" vector-effect="non-scaling-stroke" d="
  M 379.69 221.29
  L 379.72 225.10
  Q 379.73 226.21 378.63 226.20
  L 360.12 226.02"
/>
<path stroke="#24afd8" vector-effect="non-scaling-stroke" d="
  M 360.12 226.02
  Q 360.32 223.73 359.05 223.53
  C 356.32 223.11 353.11 224.32 350.19 223.36
  A 0.26 0.25 9.7 0 1 350.01 223.12
  Q 350.01 222.62 348.79 222.34"
/>
<path stroke="#3257a4" vector-effect="non-scaling-stroke" d="
  M 348.79 222.34
  L 356.33 210.81"
/>
<path stroke="#924790" vector-effect="non-scaling-stroke" d="
  M 356.33 210.81
  L 360.82 202.27"
/>
<path stroke="#9989b3" vector-effect="non-scaling-stroke" d="
  M 344.19 191.39
  Q 342.00 197.08 338.57 200.94"
/>
<path stroke="#98b3d9" vector-effect="non-scaling-stroke" d="
  M 338.57 200.94
  L 314.88 200.79"
/>
<path stroke="#2d4f95" vector-effect="non-scaling-stroke" d="
  M 366.79 191.93
  L 360.82 202.27"
/>
<path stroke="#990a61" vector-effect="non-scaling-stroke" d="
  M 360.82 202.27
  Q 349.98 201.29 339.35 202.02
  A 1.45 1.42 25.6 0 0 338.59 202.28
  Q 338.29 202.49 337.92 202.57"
/>
<path stroke="#333d8c" vector-effect="non-scaling-stroke" d="
  M 337.92 202.57
  Q 338.04 201.85 338.57 200.94"
/>
<path stroke="#fe81ae" vector-effect="non-scaling-stroke" d="
  M 396.06 221.22
  L 379.69 221.29"
/>
<path stroke="#9e1270" vector-effect="non-scaling-stroke" d="
  M 356.33 210.81
  L 334.65 211.29"
/>
<path stroke="#3084c2" vector-effect="non-scaling-stroke" d="
  M 395.98 239.79
  L 396.29 245.63"
/>
<path stroke="#29a2d3" vector-effect="non-scaling-stroke" d="
  M 396.29 245.63
  Q 390.09 245.40 384.00 245.61
  Q 379.77 245.76 373.01 245.78
  Q 367.49 245.79 362.00 246.34"
/>
<path stroke="#fe81ae" vector-effect="non-scaling-stroke" d="
  M 396.14 226.61
  Q 396.75 228.91 395.26 228.96
  Q 390.71 229.13 386.66 228.95
  Q 386.04 228.92 386.03 229.55
  L 385.97 233.79
  Q 385.96 234.48 386.65 234.48
  L 396.79 234.45"
/>
<path stroke="#9f9bcc" vector-effect="non-scaling-stroke" d="
  M 411.65 239.47
  Q 410.97 239.89 410.00 239.88
  Q 403.28 239.79 395.98 239.79"
/>
<path stroke="#90e8f5" vector-effect="non-scaling-stroke" d="
  M 395.98 239.79
  L 360.37 239.52
  A 0.29 0.29 0.0 0 1 360.08 239.22
  L 360.12 226.02"
/>
<path stroke="#307ab7" vector-effect="non-scaling-stroke" d="
  M 348.79 222.34
  L 348.41 227.23"
/>
<path stroke="#307ab7" vector-effect="non-scaling-stroke" d="
  M 312.38 245.95
  L 332.81 211.72"
/>
<path stroke="#983587" vector-effect="non-scaling-stroke" d="
  M 337.92 202.57
  Q 336.18 205.34 334.67 208.24
  Q 333.74 210.03 334.65 211.29"
/>
<path stroke="#38459b" vector-effect="non-scaling-stroke" d="
  M 334.65 211.29
  Q 334.20 211.59 333.95 210.54
  Q 333.91 210.34 333.86 210.53
  Q 333.80 210.74 333.65 210.92
  Q 333.25 211.40 332.81 211.72"
/>
<path stroke="#299ccf" vector-effect="non-scaling-stroke" d="
  M 332.81 211.72
  Q 332.57 211.23 331.49 211.30
  Q 322.99 211.84 314.83 211.22"
/>
<path stroke="#983b8c" vector-effect="non-scaling-stroke" d="
  M 392.52 249.01
  L 381.09 249.21
  A 1.57 1.57 0.0 0 0 379.55 250.87
  L 379.84 256.42
  A 1.14 1.13 -1.9 0 1 378.71 257.62
  L 361.43 257.69"
/>
<path stroke="#9f1d7a" vector-effect="non-scaling-stroke" d="
  M 396.47 249.42
  L 392.52 249.01"
/>
<path stroke="#3855aa" vector-effect="non-scaling-stroke" d="
  M 392.52 249.01
  L 396.11 248.81
  Q 396.62 248.78 396.47 248.29
  Q 395.95 246.60 396.29 245.63"
/>
<path stroke="#990a61" vector-effect="non-scaling-stroke" d="
  M 395.83 264.21
  Q 387.26 263.42 379.04 264.07"
/>
<path stroke="#924790" vector-effect="non-scaling-stroke" d="
  M 379.04 264.07
  L 360.86 264.03"
/>
<path stroke="#983587" vector-effect="non-scaling-stroke" d="
  M 360.86 264.03
  L 348.79 264.50"
/>
<path stroke="#990a61" vector-effect="non-scaling-stroke" d="
  M 326.02 264.23
  Q 314.79 263.23 303.40 264.06
  Q 302.95 264.09 302.59 263.82
  Q 302.28 263.58 302.01 263.73"
/>
<path stroke="#fe81ae" vector-effect="non-scaling-stroke" d="
  M 302.01 263.73
  L 304.99 257.71"
/>
<path stroke="#90e8f5" vector-effect="non-scaling-stroke" d="
  M 447.81 233.95
  L 447.96 239.99"
/>
<path stroke="#9f9bcc" vector-effect="non-scaling-stroke" d="
  M 430.23 240.08
  Q 425.59 239.95 420.79 239.89
  Q 420.54 239.89 420.40 239.80
  Q 420.22 239.69 420.11 239.50"
/>
<path stroke="#333d8c" vector-effect="non-scaling-stroke" d="
  M 324.46 269.63
  L 310.92 269.89"
/>
<path stroke="#990a61" vector-effect="non-scaling-stroke" d="
  M 310.92 269.89
  Q 307.14 269.82 303.28 269.86
  C 301.80 269.88 300.50 269.22 298.79 270.27"
/>
<path stroke="#990a61" vector-effect="non-scaling-stroke" d="
  M 395.87 273.51
  L 379.55 273.50"
/>
<path stroke="#2d4f95" vector-effect="non-scaling-stroke" d="
  M 379.01 272.61
  Q 379.59 272.63 379.69 272.00
  Q 380.25 268.46 379.04 264.07"
/>
<path stroke="#9989b3" vector-effect="non-scaling-stroke" d="
  M 302.01 263.73
  L 301.71 264.05"
/>
<path stroke="#92c6e2" vector-effect="non-scaling-stroke" d="
  M 301.71 264.05
  L 281.75 263.91"
/>
<path stroke="#2c7abb" vector-effect="non-scaling-stroke" d="
  M 360.86 264.03
  L 360.19 272.37"
/>
<path stroke="#906aa4" vector-effect="non-scaling-stroke" d="
  M 451.79 234.07
  L 451.58 239.86"
/>
<path stroke="#983587" vector-effect="non-scaling-stroke" d="
  M 310.92 269.89
  C 310.94 271.18 311.47 272.34 312.85 272.70
  C 315.97 273.52 320.40 273.29 323.11 273.13"
/>
<path stroke="#9e1270" vector-effect="non-scaling-stroke" d="
  M 317.86 282.25
  Q 305.88 282.78 297.25 282.68
  C 292.50 282.63 294.05 285.90 291.15 286.85
  Q 289.69 287.33 289.14 285.85"
/>
<path stroke="#906aa4" vector-effect="non-scaling-stroke" d="
  M 289.14 285.85
  L 290.64 282.18"
/>
<path stroke="#2d4f95" vector-effect="non-scaling-stroke" d="
  M 301.71 264.05
  Q 301.17 264.41 301.54 265.18"
/>
<path stroke="#2d4f95" vector-effect="non-scaling-stroke" d="
  M 299.47 269.35
  Q 299.14 269.53 298.79 270.27"
/>
<path stroke="#924790" vector-effect="non-scaling-stroke" d="
  M 298.79 270.27
  Q 297.87 271.85 296.75 272.70"
/>
<path stroke="#924790" vector-effect="non-scaling-stroke" d="
  M 380.19 282.95
  Q 379.82 282.75 379.57 282.27"
/>
<path stroke="#90e8f5" vector-effect="non-scaling-stroke" d="
  M 286.37 257.63
  L 281.75 263.91"
/>
<path stroke="#24afd8" vector-effect="non-scaling-stroke" d="
  M 281.75 263.91
  Q 280.94 263.69 279.94 264.69
  Q 276.66 268.00 275.08 272.59"
/>
<path stroke="#384b9f" vector-effect="non-scaling-stroke" d="
  M 283.59 294.80
  L 287.81 287.29"
/>
<path stroke="#307ab7" vector-effect="non-scaling-stroke" d="
  M 289.14 285.85
  L 287.81 287.29"
/>
<path stroke="#29a2d3" vector-effect="non-scaling-stroke" d="
  M 287.81 287.29
  L 281.12 287.11
  A 1.56 1.56 0.0 0 0 279.75 287.83
  L 275.59 294.25
  Q 275.16 294.92 275.96 294.90
  L 283.59 294.80"
/>
<path stroke="#307ab7" vector-effect="non-scaling-stroke" d="
  M 283.59 294.80
  L 279.22 303.21"
/>
<path stroke="#90e8f5" vector-effect="non-scaling-stroke" d="
  M 278.42 304.13
  L 246.74 304.26"
/>
<path stroke="#924790" vector-effect="non-scaling-stroke" d="
  M 379.95 286.73
  L 379.75 294.89"
/>
<path stroke="#92c6e2" vector-effect="non-scaling-stroke" d="
  M 379.75 294.89
  L 367.32 294.69"
/>
<path stroke="#2c7abb" vector-effect="non-scaling-stroke" d="
  M 367.32 294.69
  Q 365.43 293.62 364.76 294.71"
/>
<path stroke="#924790" vector-effect="non-scaling-stroke" d="
  M 364.76 294.71
  L 360.48 294.94"
/>
<path stroke="#92c6e2" vector-effect="non-scaling-stroke" d="
  M 360.48 294.94
  L 348.43 294.96"
/>
<path stroke="#98b9dd" vector-effect="non-scaling-stroke" d="
  M 251.18 313.19
  L 240.20 313.24
  Q 238.86 313.24 239.55 314.39
  L 244.37 322.38
  Q 244.66 322.86 244.10 322.86
  L 236.71 322.94"
/>
<path stroke="#90e8f5" vector-effect="non-scaling-stroke" d="
  M 236.71 322.94
  L 233.97 322.97
  A 0.68 0.67 -15.1 0 0 233.39 323.97
  L 237.19 330.80
  Q 237.80 331.90 236.54 331.95
  L 229.60 332.22"
/>
<path stroke="#92c6e2" vector-effect="non-scaling-stroke" d="
  M 229.60 332.22
  Q 228.20 330.83 227.46 328.98"
/>
<path stroke="#29a2d3" vector-effect="non-scaling-stroke" d="
  M 246.39 281.97
  L 247.32 285.76
  Q 247.45 286.28 246.91 286.26
  L 237.42 285.99
  A 0.49 0.48 76.1 0 0 236.99 286.71
  L 246.74 304.26"
/>
<path stroke="#98b9dd" vector-effect="non-scaling-stroke" d="
  M 246.74 304.26
  L 213.71 304.20"
/>
<path stroke="#29a2d3" vector-effect="non-scaling-stroke" d="
  M 213.71 304.20
  L 202.16 304.25"
/>
<path stroke="#29a2d3" vector-effect="non-scaling-stroke" d="
  M 201.44 303.83
  Q 197.62 299.24 197.11 294.77"
/>
<path stroke="#29a2d3" vector-effect="non-scaling-stroke" d="
  M 209.20 294.67
  L 223.09 295.06
  Q 225.32 295.12 224.04 293.29
  Q 221.86 290.19 219.51 287.73
  Q 217.79 285.92 215.29 285.94
  L 204.32 286.01"
/>
<path stroke="#fe81ae" vector-effect="non-scaling-stroke" d="
  M 366.80 294.93
  L 367.15 304.02
  A 0.45 0.45 0.0 0 1 366.69 304.49
  L 361.00 304.36
  Q 360.53 304.35 360.53 303.88
  L 360.48 294.94"
/>
<path stroke="#fe81ae" vector-effect="non-scaling-stroke" d="
  M 396.24 303.84
  L 380.09 303.83
  A 0.44 0.44 0.0 0 0 379.65 304.27
  L 379.68 323.11"
/>
<path stroke="#92c6e2" vector-effect="non-scaling-stroke" d="
  M 379.68 323.11
  L 360.08 323.10"
/>
<path stroke="#90e8f5" vector-effect="non-scaling-stroke" d="
  M 360.08 323.10
  L 360.27 304.43
  A 0.45 0.44 -90.0 0 0 359.83 303.98
  L 348.48 303.75"
/>
<path stroke="#fe81ae" vector-effect="non-scaling-stroke" d="
  M 409.94 294.82
  L 379.75 294.89"
/>
<path stroke="#98b3d9" vector-effect="non-scaling-stroke" d="
  M 367.32 294.69
  Q 366.93 294.81 366.80 294.93"
/>
<path stroke="#983587" vector-effect="non-scaling-stroke" d="
  M 366.80 294.93
  Q 365.88 294.60 364.76 294.71"
/>
<path stroke="#3084c2" vector-effect="non-scaling-stroke" d="
  M 261.38 333.23
  L 256.83 341.91"
/>
<path stroke="#24afd8" vector-effect="non-scaling-stroke" d="
  M 256.83 341.91
  L 235.80 342.09
  Q 234.93 342.09 234.52 341.33
  L 229.60 332.22"
/>
<path stroke="#3362ae" vector-effect="non-scaling-stroke" d="
  M 256.83 341.91
  Q 256.91 341.94 256.90 342.59"
/>
<path stroke="#92c6e2" vector-effect="non-scaling-stroke" d="
  M 256.90 342.59
  Q 256.34 342.59 256.04 343.02
  Q 254.07 345.85 251.75 350.05
  A 0.89 0.88 -75.6 0 1 251.00 350.50
  L 227.19 350.76"
/>
<path stroke="#334391" vector-effect="non-scaling-stroke" d="
  M 266.96 322.42
  Q 267.27 323.50 266.71 324.44
  Q 264.32 328.49 261.82 332.48"
/>
<path stroke="#3855aa" vector-effect="non-scaling-stroke" d="
  M 261.82 332.48
  Q 262.02 332.95 261.38 333.23"
/>
<path stroke="#29a2d3" vector-effect="non-scaling-stroke" d="
  M 261.38 333.23
  L 243.77 333.04
  Q 242.39 333.03 241.71 331.83
  L 236.71 322.94"
/>
<path stroke="#90e8f5" vector-effect="non-scaling-stroke" d="
  M 213.71 304.20
  L 227.46 328.98"
/>
<path stroke="#24afd8" vector-effect="non-scaling-stroke" d="
  M 227.46 328.98
  L 217.01 330.49"
/>
<path stroke="#29a2d3" vector-effect="non-scaling-stroke" d="
  M 198.91 282.08
  L 200.63 286.43"
/>
<path stroke="#24afd8" vector-effect="non-scaling-stroke" d="
  M 360.08 323.10
  L 348.51 323.51"
/>
<path stroke="#924790" vector-effect="non-scaling-stroke" d="
  M 380.02 333.84
  L 379.68 323.11"
/>
<path stroke="#9f1d7a" vector-effect="non-scaling-stroke" d="
  M 276.67 333.09
  Q 275.89 335.02 274.51 336.70
  Q 273.43 338.01 272.54 339.70
  Q 271.49 341.70 270.08 342.47"
/>
<path stroke="#9f9bcc" vector-effect="non-scaling-stroke" d="
  M 270.08 342.47
  L 256.90 342.59"
/>
<path stroke="#9989b3" vector-effect="non-scaling-stroke" d="
  M 264.92 350.42
  L 259.03 360.44"
/>
<path stroke="#fe81ae" vector-effect="non-scaling-stroke" d="
  M 259.03 360.44
  L 252.32 370.42"
/>
<path stroke="#98b3d9" vector-effect="non-scaling-stroke" d="
  M 252.32 370.42
  Q 252.44 371.29 251.97 372.39"
/>
<path stroke="#90e8f5" vector-effect="non-scaling-stroke" d="
  M 251.97 372.39
  L 244.16 360.12
  A 1.32 1.30 -16.3 0 0 243.03 359.51
  L 232.66 359.71"
/>
<path stroke="#990a61" vector-effect="non-scaling-stroke" d="
  M 291.40 333.12
  L 276.67 333.09"
/>
<path stroke="#3a257f" vector-effect="non-scaling-stroke" d="
  M 276.67 333.09
  Q 267.36 332.83 263.50 332.96
  Q 262.36 332.99 261.82 332.48"
/>
<path stroke="#90e8f5" vector-effect="non-scaling-stroke" d="
  M 188.82 295.07
  L 193.73 303.93"
/>
<path stroke="#990a61" vector-effect="non-scaling-stroke" d="
  M 280.79 350.56
  L 264.92 350.42"
/>
<path stroke="#fe81ae" vector-effect="non-scaling-stroke" d="
  M 264.92 350.42
  L 270.08 342.47"
/>
<path stroke="#299ccf" vector-effect="non-scaling-stroke" d="
  M 251.97 372.39
  L 252.56 386.20"
/>
<path stroke="#906aa4" vector-effect="non-scaling-stroke" d="
  M 252.56 386.20
  L 252.80 396.49"
/>
<path stroke="#990a61" vector-effect="non-scaling-stroke" d="
  M 274.56 360.87
  L 259.03 360.44"
/>
<path stroke="#983587" vector-effect="non-scaling-stroke" d="
  M 252.56 386.20
  Q 253.22 378.40 252.32 370.42"
/>
<path stroke="#990a61" vector-effect="non-scaling-stroke" d="
  M 297.00 322.68
  L 268.70 322.46
  Q 268.42 322.45 268.36 322.18
  Q 268.32 321.97 268.15 321.86"
/>
<path stroke="#906aa4" vector-effect="non-scaling-stroke" d="
  M 71.61 158.30
  Q 72.22 154.00 71.05 151.30"
/>
<path stroke="#90e8f5" vector-effect="non-scaling-stroke" d="
  M 67.73 158.14
  Q 66.77 155.31 67.33 151.76"
/>
<path stroke="#990a61" vector-effect="non-scaling-stroke" d="
  M 149.48 234.52
  L 130.14 233.93"
/>
<path stroke="#990a61" vector-effect="non-scaling-stroke" d="
  M 149.55 243.20
  Q 148.87 243.65 148.37 243.63
  Q 140.17 243.19 130.52 243.77"
/>
<path stroke="#9989b3" vector-effect="non-scaling-stroke" d="
  M 130.52 243.77
  Q 129.79 243.10 130.17 243.61"
/>
<path stroke="#334391" vector-effect="non-scaling-stroke" d="
  M 130.17 243.61
  Q 131.05 238.90 129.92 234.79"
/>
<path stroke="#9989b3" vector-effect="non-scaling-stroke" d="
  M 130.50 251.44
  L 130.50 266.85"
/>
<path stroke="#9f9bcc" vector-effect="non-scaling-stroke" d="
  M 130.50 266.85
  L 130.48 273.32"
/>
<path stroke="#fe81ae" vector-effect="non-scaling-stroke" d="
  M 130.48 273.32
  Q 120.19 272.89 110.00 273.03
  Q 108.89 273.04 107.97 273.51"
/>
<path stroke="#90e8f5" vector-effect="non-scaling-stroke" d="
  M 107.97 273.51
  Q 107.27 273.40 107.30 272.50
  Q 107.61 262.38 107.48 252.58
  A 1.19 1.19 0.0 0 0 106.26 251.41
  L 98.86 251.60"
/>
<path stroke="#98b9dd" vector-effect="non-scaling-stroke" d="
  M 130.17 243.61
  L 98.92 243.76"
/>
<path stroke="#983b8c" vector-effect="non-scaling-stroke" d="
  M 98.92 243.76
  Q 98.23 243.40 98.86 243.56"
/>
<path stroke="#990a61" vector-effect="non-scaling-stroke" d="
  M 149.52 251.57
  L 130.50 251.44"
/>
<path stroke="#fe81ae" vector-effect="non-scaling-stroke" d="
  M 130.50 251.44
  L 130.52 243.77"
/>
<path stroke="#983b8c" vector-effect="non-scaling-stroke" d="
  M 108.55 276.79
  Q 108.07 276.49 108.07 275.54"
/>
<path stroke="#906aa4" vector-effect="non-scaling-stroke" d="
  M 107.97 273.51
  L 108.07 275.54"
/>
<path stroke="#29a2d3" vector-effect="non-scaling-stroke" d="
  M 108.07 275.54
  Q 108.15 275.86 108.12 276.11
  Q 108.06 276.62 107.55 276.65
  L 100.24 277.02
  Q 99.70 277.05 99.36 276.62
  Q 98.59 275.67 98.84 274.35"
/>
<path stroke="#9f1d7a" vector-effect="non-scaling-stroke" d="
  M 149.89 283.21
  L 131.89 282.62
  Q 131.38 282.60 131.21 283.09
  L 130.90 284.04"
/>
<path stroke="#3855aa" vector-effect="non-scaling-stroke" d="
  M 130.90 284.04
  Q 130.83 281.90 126.25 282.13
  Q 119.30 282.48 112.38 281.77
  C 110.35 281.56 108.86 278.23 108.55 276.79"
/>
<path stroke="#9f1d7a" vector-effect="non-scaling-stroke" d="
  M 108.55 276.79
  L 129.24 276.75
  A 1.63 1.63 0.0 0 0 130.87 275.12
  Q 130.87 274.19 130.48 273.32"
/>
<path stroke="#3a257f" vector-effect="non-scaling-stroke" d="
  M 149.86 266.88
  L 130.50 266.85"
/>
<path stroke="#fe81ae" vector-effect="non-scaling-stroke" d="
  M 98.92 243.76
  L 98.86 251.60"
/>
<path stroke="#983b8c" vector-effect="non-scaling-stroke" d="
  M 130.90 284.04
  C 130.54 287.83 130.20 290.16 131.36 293.17"
/>
<path stroke="#3855aa" vector-effect="non-scaling-stroke" d="
  M 131.36 293.17
  L 130.44 294.92"
/>
<path stroke="#98b9dd" vector-effect="non-scaling-stroke" d="
  M 130.44 294.92
  L 107.96 294.61"
/>
<path stroke="#29a2d3" vector-effect="non-scaling-stroke" d="
  M 107.96 294.61
  L 99.01 294.71"
/>
<path stroke="#9f1d7a" vector-effect="non-scaling-stroke" d="
  M 149.69 293.52
  L 131.36 293.17"
/>
<path stroke="#90e8f5" vector-effect="non-scaling-stroke" d="
  M 107.96 294.61
  L 107.61 307.76"
/>
<path stroke="#9f1d7a" vector-effect="non-scaling-stroke" d="
  M 149.67 300.02
  L 130.53 300.33"
/>
<path stroke="#9f9bcc" vector-effect="non-scaling-stroke" d="
  M 130.53 300.33
  L 130.44 294.92"
/>
<path stroke="#fe81ae" vector-effect="non-scaling-stroke" d="
  M 130.53 300.33
  L 130.46 307.74"
/>
<path stroke="#98b9dd" vector-effect="non-scaling-stroke" d="
  M 178.85 270.48
  L 179.14 277.17"
/>
<path stroke="#9f1d7a" vector-effect="non-scaling-stroke" d="
  M 130.53 318.13
  L 130.86 325.75"
/>
<path stroke="#3a257f" vector-effect="non-scaling-stroke" d="
  M 130.86 325.75
  Q 130.04 325.98 130.14 326.17"
/>
<path stroke="#3855aa" vector-effect="non-scaling-stroke" d="
  M 130.14 326.17
  L 98.66 325.68"
/>
<path stroke="#9f9bcc" vector-effect="non-scaling-stroke" d="
  M 88.57 325.78
  L 85.55 325.67"
/>
<path stroke="#3a257f" vector-effect="non-scaling-stroke" d="
  M 85.55 325.67
  Q 85.91 325.62 86.05 325.44
  A 0.37 0.37 0.0 0 0 85.91 324.89
  Q 84.64 324.32 82.95 324.75"
/>
<path stroke="#9989b3" vector-effect="non-scaling-stroke" d="
  M 85.55 325.67
  Q 84.16 325.95 82.92 325.56"
/>
<path stroke="#990a61" vector-effect="non-scaling-stroke" d="
  M 162.98 343.58
  L 130.48 343.70"
/>
<path stroke="#9989b3" vector-effect="non-scaling-stroke" d="
  M 130.48 343.70
  L 130.44 334.53"
/>
<path stroke="#990a61" vector-effect="non-scaling-stroke" d="
  M 149.22 326.27
  Q 148.66 325.90 147.87 325.88
  Q 137.97 325.57 130.86 325.75"
/>
<path stroke="#334391" vector-effect="non-scaling-stroke" d="
  M 130.14 326.17
  L 130.44 334.53"
/>
<path stroke="#98b9dd" vector-effect="non-scaling-stroke" d="
  M 130.44 334.53
  L 98.60 334.47"
/>
<path stroke="#fe81ae" vector-effect="non-scaling-stroke" d="
  M 130.48 343.70
  L 130.22 350.52"
/>
<path stroke="#90e8f5" vector-effect="non-scaling-stroke" d="
  M 107.63 350.54
  L 107.53 342.82
  A 0.73 0.73 0.0 0 0 106.78 342.10
  L 99.02 342.33"
/>
<path stroke="#fe81ae" vector-effect="non-scaling-stroke" d="
  M 69.49 326.25
  L 69.69 333.69"
/>
<path stroke="#fe81ae" vector-effect="non-scaling-stroke" d="
  M 66.49 333.72
  L 66.30 326.13"
/>
<path stroke="#fe81ae" vector-effect="non-scaling-stroke" d="
  M 411.70 367.98
  L 406.20 361.16
  Q 405.88 360.77 405.38 360.77
  Q 392.69 360.72 380.10 360.81
  Q 380.01 360.81 379.95 360.87
  Q 379.86 360.96 379.77 361.05"
/>
<path stroke="#983b8c" vector-effect="non-scaling-stroke" d="
  M 379.77 361.05
  Q 380.04 360.94 379.62 360.61"
/>
<path stroke="#98b9dd" vector-effect="non-scaling-stroke" d="
  M 379.77 361.05
  L 379.84 369.91"
/>
<path stroke="#29a2d3" vector-effect="non-scaling-stroke" d="
  M 379.84 369.91
  Q 379.12 370.61 377.74 370.39
  Q 376.30 370.15 375.72 370.17
  C 366.54 370.49 357.46 369.76 348.24 370.20"
/>
<path stroke="#90e8f5" vector-effect="non-scaling-stroke" d="
  M 411.66 369.60
  L 379.84 369.91"
/>
<path stroke="#906aa4" vector-effect="non-scaling-stroke" d="
  M 411.61 378.66
  Q 404.58 378.39 397.50 378.39
  Q 396.52 378.39 396.31 378.75"
/>
<path stroke="#90e8f5" vector-effect="non-scaling-stroke" d="
  M 396.31 378.75
  Q 396.30 378.61 396.23 378.50
  Q 396.15 378.37 396.01 378.37
  L 348.07 378.34"
/>
<path stroke="#fe81ae" vector-effect="non-scaling-stroke" d="
  M 396.31 378.75
  L 396.29 402.49"
/>
<path stroke="#90e8f5" vector-effect="non-scaling-stroke" d="
  M 359.81 402.49
  L 359.87 386.89
  Q 359.87 386.37 359.35 386.36
  L 348.61 386.19"
/>
<path stroke="#3a257f" vector-effect="non-scaling-stroke" d="
  M 429.20 377.81
  L 426.51 377.41"
/>
<path stroke="#9989b3" vector-effect="non-scaling-stroke" d="
  M 428.89 378.67
  L 425.69 378.36"
/>
<path stroke="#90e8f5" vector-effect="non-scaling-stroke" d="
  M 74.78 369.29
  L 74.84 377.68"
/>
<path stroke="#906aa4" vector-effect="non-scaling-stroke" d="
  M 107.21 395.19
  L 98.89 395.40"
/>
<path stroke="#fe81ae" vector-effect="non-scaling-stroke" d="
  M 149.52 369.24
  L 149.49 377.97"
/>
<path stroke="#9989b3" vector-effect="non-scaling-stroke" d="
  M 149.49 377.97
  L 131.11 377.88
  Q 130.59 377.88 130.59 378.39
  L 130.52 387.04"
/>
<path stroke="#fe81ae" vector-effect="non-scaling-stroke" d="
  M 130.52 387.04
  L 130.41 394.58
  A 0.63 0.63 0.0 0 1 129.78 395.20
  L 107.21 395.19"
/>
<path stroke="#90e8f5" vector-effect="non-scaling-stroke" d="
  M 107.21 395.19
  L 107.28 378.20"
/>
<path stroke="#990a61" vector-effect="non-scaling-stroke" d="
  M 149.65 387.19
  L 130.52 387.04"
/>
<path stroke="#fe81ae" vector-effect="non-scaling-stroke" d="
  M 383.08 122.15
  A 0.35 0.35 0.0 0 0 382.74 122.56
  L 384.34 131.45
  A 0.35 0.35 0.0 0 0 384.68 131.74
  L 395.92 131.71
  A 0.35 0.35 0.0 0 0 396.27 131.36
  L 396.16 122.67
  A 0.35 0.35 0.0 0 0 395.82 122.33
  L 383.08 122.15"
/>
<path stroke="#990a61" vector-effect="non-scaling-stroke" d="
  M 150.1018 334.9406
  A 0.26 0.26 0.0 0 0 149.8382 334.6843
  L 131.8200 334.9359
  A 0.26 0.26 0.0 0 0 131.5636 335.1995
  L 131.5782 336.2394
  A 0.26 0.26 0.0 0 0 131.8418 336.4957
  L 149.8600 336.2441
  A 0.26 0.26 0.0 0 0 150.1164 335.9805
  L 150.1018 334.9406"
/>
</g>
<path fill="#fe025c" d="
  M 149.69 131.59
  L 149.56 99.33
  Q 152.19 98.33 154.69 99.14
  Q 155.17 99.30 155.36 99.76
  Q 156.55 102.56 157.67 104.64
  Q 164.70 117.60 172.13 130.27
  Q 172.79 131.40 171.48 131.41
  L 149.69 131.59
  Z"
/>
<path fill="#fe025c" d="
  M 396.11 135.57
  L 381.56 135.42
  A 1.84 1.84 0.0 0 1 379.74 133.64
  L 379.32 122.11
  Q 379.87 122.21 380.73 121.86
  A 0.29 0.29 0.0 0 0 380.76 121.33
  L 380.27 121.07
  A 0.89 0.88 -78.3 0 1 379.79 120.33
  C 379.50 115.67 379.15 112.92 382.33 110.08
  Q 385.35 106.42 389.16 103.66
  Q 390.85 102.44 390.25 99.06
  Q 393.06 98.42 395.74 99.28
  Q 396.22 99.44 396.22 99.94
  L 396.38 121.45
  A 0.58 0.57 89.5 0 0 396.95 122.02
  L 429.36 122.16
  A 0.98 0.98 0.0 0 1 430.34 123.11
  L 430.47 126.44
  Q 430.50 127.13 429.81 127.13
  L 412.48 127.17
  Q 411.62 127.17 411.59 128.02
  L 411.50 131.00
  Q 411.47 131.97 410.50 131.97
  L 397.05 131.94
  Q 396.50 131.94 396.45 132.48
  L 396.11 135.57
  Z
  M 383.08 122.15
  A 0.35 0.35 0.0 0 0 382.74 122.56
  L 384.34 131.45
  A 0.35 0.35 0.0 0 0 384.68 131.74
  L 395.92 131.71
  A 0.35 0.35 0.0 0 0 396.27 131.36
  L 396.16 122.67
  A 0.35 0.35 0.0 0 0 395.82 122.33
  L 383.08 122.15
  Z"
/>
<path fill="#21d1eb" d="
  M 107.53 99.09
  L 107.44 131.75
  L 98.98 131.88
  L 98.97 100.00
  A 0.83 0.82 89.7 0 1 99.78 99.17
  L 107.53 99.09
  Z"
/>
<path fill="#feffff" d="
  M 107.53 99.09
  L 149.56 99.33
  L 149.69 131.59
  L 130.34 131.69
  L 107.44 131.75
  L 107.53 99.09
  Z"
/>
<path fill="#21d1eb" d="
  M 390.25 99.06
  Q 390.85 102.44 389.16 103.66
  Q 385.35 106.42 382.33 110.08
  Q 368.62 110.87 354.90 110.24
  Q 354.17 110.21 353.80 110.85
  L 347.45 122.19
  L 340.07 122.13
  A 0.66 0.66 0.0 0 1 339.53 121.11
  Q 341.49 118.15 343.03 114.86
  Q 346.99 106.47 351.25 99.41
  A 0.83 0.82 15.4 0 1 351.96 99.01
  L 390.25 99.06
  Z"
/>
<path fill="#feffff" d="
  M 382.33 110.08
  C 379.15 112.92 379.50 115.67 379.79 120.33
  A 0.89 0.88 -78.3 0 0 380.27 121.07
  L 380.76 121.33
  A 0.29 0.29 0.0 0 1 380.73 121.86
  Q 379.87 122.21 379.32 122.11
  L 361.25 122.11
  L 347.45 122.19
  L 353.80 110.85
  Q 354.17 110.21 354.90 110.24
  Q 368.62 110.87 382.33 110.08
  Z"
/>
<rect fill="#fe025c" x="-4.33" y="-2.54" transform="translate(322.87,124.73) rotate(-0.2)" width="8.66" height="5.08" rx="0.78"/>
<path fill="#3167b2" d="
  M 379.32 122.11
  L 379.74 133.64
  A 1.84 1.84 0.0 0 0 381.56 135.42
  L 396.11 135.57
  L 396.19 141.10
  L 374.05 141.06
  L 351.86 141.26
  Q 350.72 141.27 351.29 140.28
  L 356.27 131.76
  L 359.50 131.80
  Q 361.10 131.82 361.13 130.21
  L 361.25 122.11
  L 379.32 122.11
  Z"
/>
<path fill="#feffff" d="
  M 383.08 122.15
  L 395.82 122.33
  A 0.35 0.35 0.0 0 1 396.16 122.67
  L 396.27 131.36
  A 0.35 0.35 0.0 0 1 395.92 131.71
  L 384.68 131.74
  A 0.35 0.35 0.0 0 1 384.34 131.45
  L 382.74 122.56
  A 0.35 0.35 0.0 0 1 383.08 122.15
  Z"
/>
<path fill="#21d1eb" d="
  M 356.27 131.76
  L 351.29 140.28
  Q 350.72 141.27 351.86 141.26
  L 374.05 141.06
  L 367.36 152.20
  L 348.31 152.55
  Q 347.96 152.55 347.78 152.86
  L 345.76 156.45
  A 0.26 0.26 0.0 0 0 346.00 156.84
  L 351.95 156.40
  A 0.60 0.59 -5.0 0 1 352.59 156.93
  Q 352.66 157.63 351.53 158.99
  Q 347.51 163.41 349.09 164.68
  L 316.18 165.01
  L 334.43 132.44
  Q 334.89 131.62 335.83 131.62
  L 356.27 131.76
  Z"
/>
<path fill="#3167b2" d="
  M 98.98 131.88
  L 107.44 131.75
  L 130.34 131.69
  L 130.82 139.83
  Q 130.89 141.01 132.07 141.01
  L 164.43 141.13
  Q 163.28 144.40 161.99 147.45
  Q 161.43 148.78 161.43 150.16
  Q 161.43 151.67 161.45 152.97
  L 146.44 152.60
  L 107.62 152.56
  L 107.59 142.32
  A 1.03 1.03 0.0 0 0 106.57 141.29
  L 98.87 141.22
  L 98.60 132.30
  L 98.98 131.88
  Z"
/>
<path fill="#feffff" d="
  M 98.60 132.30
  L 98.87 141.22
  L 70.41 141.06
  Q 70.12 141.05 70.12 140.76
  L 70.11 132.44
  Q 70.11 132.11 70.45 132.11
  Q 83.90 132.09 97.74 132.08
  Q 97.78 132.08 98.29 132.24
  Q 98.42 132.29 98.60 132.30
  Z"
/>
<path fill="#fe025c" d="
  M 186.51 158.60
  Q 186.18 158.76 185.63 158.49
  Q 185.21 158.28 184.74 158.29
  L 176.78 158.50
  Q 175.53 158.53 176.07 159.65
  L 177.79 163.26
  Q 178.40 164.53 179.80 164.69
  Q 184.32 165.19 188.10 163.86
  Q 189.19 163.70 190.12 165.40
  Q 195.08 174.43 197.30 178.00
  Q 197.71 178.66 198.82 181.29
  Q 198.71 181.77 198.00 181.77
  Q 188.63 181.75 179.25 181.87
  Q 178.87 181.88 177.76 181.53
  Q 177.70 181.36 177.61 181.29
  L 173.11 173.69
  L 170.08 167.32
  A 1.02 1.02 0.0 0 1 171.09 165.86
  Q 174.03 166.12 177.07 165.69
  Q 177.34 165.65 177.31 165.37
  L 177.28 165.06
  Q 177.27 164.97 177.18 164.98
  Q 174.23 165.14 171.26 165.40
  Q 169.81 165.52 168.43 164.83
  L 161.45 152.97
  Q 161.43 151.67 161.43 150.16
  Q 161.43 148.78 161.99 147.45
  Q 163.28 144.40 164.43 141.13
  L 197.19 140.92
  A 0.81 0.80 89.3 0 1 198.00 141.72
  L 198.07 151.76
  A 0.69 0.69 0.0 0 0 198.76 152.45
  L 204.98 152.46
  Q 205.76 152.46 205.78 153.23
  L 205.88 157.43
  Q 205.91 158.42 204.91 158.43
  L 186.51 158.60
  Z"
/>
<path fill="#268cc4" d="
  M 396.19 141.10
  L 395.98 152.64
  L 380.09 152.51
  L 368.74 152.39
  L 367.36 152.20
  L 374.05 141.06
  L 396.19 141.10
  Z"
/>
<path fill="#3f3798" d="
  M 420.43 142.81
  L 420.40 149.79
  A 0.95 0.95 0.0 0 1 419.44 150.73
  L 413.90 150.69
  A 0.95 0.95 0.0 0 1 412.96 149.74
  L 412.93 142.56
  A 0.95 0.95 0.0 0 1 413.93 141.61
  L 419.53 141.86
  A 0.95 0.95 0.0 0 1 420.43 142.81
  Z"
/>
<path fill="#fe025c" d="
  M 71.61 158.30
  Q 72.22 154.00 71.05 151.30
  L 77.66 151.13
  Q 78.28 151.11 78.27 151.73
  L 78.26 157.76
  Q 78.26 158.28 77.74 158.38
  Q 74.72 158.93 71.61 158.30
  Z"
/>
<path fill="#21d1eb" d="
  M 71.05 151.30
  Q 72.22 154.00 71.61 158.30
  L 67.73 158.14
  Q 66.77 155.31 67.33 151.76
  L 71.05 151.30
  Z"
/>
<path fill="#feffff" d="
  M 67.33 151.76
  Q 66.77 155.31 67.73 158.14
  L 59.42 157.99
  Q 59.18 157.98 59.18 157.74
  L 59.11 152.02
  Q 59.11 151.80 59.33 151.80
  L 67.33 151.76
  Z"
/>
<rect fill="#feffff" x="428.63" y="151.74" width="7.56" height="6.22" rx="0.42"/>
<path fill="#3173bb" d="
  M 367.36 152.20
  L 368.74 152.39
  Q 366.73 152.25 365.94 153.73
  Q 364.50 156.43 363.46 158.54
  L 351.53 158.99
  Q 352.66 157.63 352.59 156.93
  A 0.60 0.59 -5.0 0 0 351.95 156.40
  L 346.00 156.84
  A 0.26 0.26 0.0 0 1 345.76 156.45
  L 347.78 152.86
  Q 347.96 152.55 348.31 152.55
  L 367.36 152.20
  Z"
/>
<path fill="#341266" d="
  M 368.74 152.39
  L 380.09 152.51
  L 379.61 163.72
  A 0.86 0.86 0.0 0 1 378.75 164.55
  L 359.78 164.71
  L 363.46 158.54
  Q 364.50 156.43 365.94 153.73
  Q 366.73 152.25 368.74 152.39
  Z"
/>
<path fill="#feffff" d="
  M 146.44 152.60
  Q 146.06 154.95 144.70 157.55
  A 1.80 1.77 -75.7 0 1 143.11 158.51
  L 131.14 158.50
  L 108.91 158.58
  Q 106.93 159.28 107.62 152.56
  L 146.44 152.60
  Z"
/>
<path fill="#21d1eb" d="
  M 146.44 152.60
  L 161.45 152.97
  L 168.43 164.83
  L 130.48 164.86
  L 130.12 164.29
  L 131.14 158.50
  L 143.11 158.51
  A 1.80 1.77 -75.7 0 0 144.70 157.55
  Q 146.06 154.95 146.44 152.60
  Z"
/>
<rect fill="#fe025c" x="-4.17" y="-2.98" transform="translate(221.03,155.48) rotate(-0.3)" width="8.34" height="5.96" rx="0.68"/>
<path fill="#fe025c" d="
  M 380.09 152.51
  L 395.98 152.64
  L 410.99 152.73
  Q 411.91 152.74 411.94 153.66
  Q 412.05 157.54 412.05 157.55
  A 0.93 0.92 -0.9 0 1 411.12 158.50
  Q 404.00 158.48 396.95 158.51
  Q 396.23 158.51 396.24 159.23
  L 396.26 163.50
  Q 396.26 164.24 397.00 164.24
  L 419.28 164.35
  A 1.61 1.59 -15.4 0 1 420.62 165.10
  Q 421.08 165.85 420.78 166.68
  A 0.81 0.81 0.0 0 0 421.53 167.77
  L 425.51 167.79
  Q 426.22 167.79 426.25 168.51
  L 426.39 172.50
  Q 426.42 173.24 425.68 173.25
  L 396.05 173.40
  L 379.51 173.37
  L 356.90 173.59
  Q 356.41 173.60 355.97 173.39
  Q 355.51 173.17 355.01 173.11
  L 360.01 164.36
  Q 359.90 164.54 359.78 164.71
  L 378.75 164.55
  A 0.86 0.86 0.0 0 0 379.61 163.72
  L 380.09 152.51
  Z"
/>
<path fill="#3e2283" d="
  M 186.51 158.60
  L 188.10 163.86
  Q 184.32 165.19 179.80 164.69
  Q 178.40 164.53 177.79 163.26
  L 176.07 159.65
  Q 175.53 158.53 176.78 158.50
  L 184.74 158.29
  Q 185.21 158.28 185.63 158.49
  Q 186.18 158.76 186.51 158.60
  Z"
/>
<path fill="#3173bb" d="
  M 131.14 158.50
  L 130.12 164.29
  L 111.29 164.01
  Q 110.78 164.00 110.71 163.50
  Q 110.42 161.33 110.45 159.26
  Q 110.46 158.65 108.91 158.58
  L 131.14 158.50
  Z"
/>
<path fill="#268cc4" d="
  M 363.46 158.54
  L 359.78 164.71
  Q 359.90 164.54 360.01 164.36
  L 349.09 164.68
  Q 347.51 163.41 351.53 158.99
  L 363.46 158.54
  Z"
/>
<path fill="#feffff" d="
  M 360.01 164.36
  L 355.01 173.11
  Q 354.41 173.39 353.74 173.30
  L 330.55 173.07
  L 311.79 172.94
  L 316.18 165.01
  L 349.09 164.68
  L 360.01 164.36
  Z"
/>
<path fill="#3f3798" d="
  M 168.43 164.83
  Q 169.81 165.52 171.26 165.40
  Q 174.23 165.14 177.18 164.98
  Q 177.27 164.97 177.28 165.06
  L 177.31 165.37
  Q 177.34 165.65 177.07 165.69
  Q 174.03 166.12 171.09 165.86
  A 1.02 1.02 0.0 0 0 170.08 167.32
  L 173.11 173.69
  L 129.78 173.71
  Q 131.08 170.56 130.48 164.86
  L 168.43 164.83
  Z"
/>
<path fill="#21d1eb" d="
  M 85.80 173.18
  L 78.59 173.06
  A 0.59 0.59 0.0 0 1 78.01 172.46
  L 78.15 166.90
  A 0.59 0.59 0.0 0 1 78.72 166.32
  L 85.91 166.09
  A 0.59 0.59 0.0 0 1 86.52 166.69
  L 86.40 172.60
  A 0.59 0.59 0.0 0 1 85.80 173.18
  Z"
/>
<rect fill="#feffff" x="-2.57" y="-1.93" transform="translate(91.33,171.16) rotate(0.8)" width="5.14" height="3.86" rx="0.43"/>
<path fill="#21d1eb" d="
  M 311.79 172.94
  L 330.55 173.07
  Q 330.64 177.01 327.44 180.31
  A 0.84 0.84 0.0 0 0 328.03 181.73
  L 349.30 182.07
  L 343.65 190.74
  Q 342.30 191.13 341.74 191.14
  Q 321.76 191.39 301.79 191.25
  Q 302.50 189.01 303.56 187.00
  Q 307.61 179.32 311.79 172.94
  Z"
/>
<path fill="#3173bb" d="
  M 353.74 173.30
  C 353.97 174.00 354.00 174.65 353.62 175.34
  Q 351.28 179.49 349.30 182.07
  L 328.03 181.73
  A 0.84 0.84 0.0 0 1 327.44 180.31
  Q 330.64 177.01 330.55 173.07
  L 353.74 173.30
  Z"
/>
<path fill="#3f3798" d="
  M 379.51 173.37
  L 379.73 181.64
  Q 379.11 187.00 380.43 191.31
  Q 379.31 192.04 379.86 192.27
  Q 379.46 192.28 379.39 191.90
  Q 379.31 191.50 378.91 191.52
  L 366.79 191.93
  Q 366.76 191.75 366.29 191.48
  Q 365.97 191.29 365.60 191.30
  Q 356.56 191.60 347.71 191.27
  Q 347.57 191.27 347.45 191.18
  L 347.19 190.95
  Q 346.97 190.77 346.71 190.88
  Q 345.61 191.36 344.19 191.39
  Q 344.37 191.20 344.15 190.77
  Q 344.06 190.61 343.88 190.63
  Q 343.70 190.65 343.65 190.74
  L 349.30 182.07
  Q 351.28 179.49 353.62 175.34
  C 354.00 174.65 353.97 174.00 353.74 173.30
  Q 354.41 173.39 355.01 173.11
  Q 355.51 173.17 355.97 173.39
  Q 356.41 173.60 356.90 173.59
  L 379.51 173.37
  Z"
/>
<path fill="#feffff" d="
  M 129.78 173.71
  L 173.11 173.69
  L 177.61 181.29
  Q 177.74 181.85 177.25 181.86
  Q 151.05 182.12 107.96 181.95
  Q 107.78 182.00 107.57 181.70
  Q 107.45 181.53 107.45 181.28
  Q 107.48 177.56 107.63 173.75
  L 129.78 173.71
  Z"
/>
<path fill="#feffff" d="
  M 379.51 173.37
  L 396.05 173.40
  L 396.24 181.03
  Q 396.12 181.50 395.50 181.50
  Q 387.67 181.45 379.73 181.64
  L 379.51 173.37
  Z"
/>
<path fill="#21d1eb" d="
  M 107.63 173.75
  Q 107.48 177.56 107.45 181.28
  Q 107.45 181.53 107.57 181.70
  Q 107.78 182.00 107.96 181.95
  Q 107.79 182.32 107.48 182.14
  L 100.23 181.99
  A 1.22 1.22 0.0 0 1 99.03 180.77
  L 99.01 174.98
  Q 99.01 173.73 100.25 173.74
  L 107.63 173.75
  Z"
/>
<path fill="#fe025c" d="
  M 396.24 181.03
  Q 396.48 181.27 396.73 181.40
  Q 396.98 181.53 397.27 181.50
  Q 404.30 180.82 410.95 181.45
  A 0.61 0.61 0.0 0 1 411.51 182.06
  L 411.51 191.20
  L 380.43 191.31
  Q 379.11 187.00 379.73 181.64
  Q 387.67 181.45 395.50 181.50
  Q 396.12 181.50 396.24 181.03
  Z"
/>
<path fill="#3173bb" d="
  M 177.61 181.29
  Q 177.70 181.36 177.76 181.53
  Q 177.65 182.22 177.81 182.50
  Q 180.43 186.88 183.03 191.33
  Q 183.44 191.45 183.27 192.23
  Q 180.25 191.63 174.25 191.73
  Q 167.31 191.85 142.63 191.43
  A 0.96 0.91 -61.8 0 0 142.03 191.63
  Q 141.87 191.75 141.68 191.81
  Q 141.06 191.38 140.00 191.34
  Q 135.68 191.19 131.34 191.32
  Q 130.97 191.33 130.67 191.56
  L 130.40 191.78
  L 107.58 191.51
  L 107.19 191.26
  L 107.48 182.14
  Q 107.79 182.32 107.96 181.95
  Q 151.05 182.12 177.25 181.86
  Q 177.74 181.85 177.61 181.29
  Z"
/>
<path fill="#3e2283" d="
  M 198.82 181.29
  L 199.07 181.51
  Q 199.40 181.79 199.84 181.79
  L 210.33 181.70
  Q 212.49 181.68 212.46 183.83
  L 212.39 189.19
  Q 212.36 191.25 210.31 191.16
  L 205.31 190.94
  A 0.90 0.89 -14.2 0 0 204.50 192.29
  L 210.25 202.00
  L 197.60 201.97
  Q 196.14 197.35 193.61 193.16
  Q 192.30 190.99 189.75 191.09
  Q 186.40 191.22 183.03 191.33
  Q 180.43 186.88 177.81 182.50
  Q 177.65 182.22 177.76 181.53
  Q 178.87 181.88 179.25 181.87
  Q 188.63 181.75 198.00 181.77
  Q 198.71 181.77 198.82 181.29
  Z"
/>
<path fill="#feffff" d="
  M 344.19 191.39
  Q 342.00 197.08 338.57 200.94
  L 314.88 200.79
  L 277.01 200.76
  A 0.45 0.44 -90.0 0 1 276.57 200.31
  L 276.55 191.68
  Q 276.55 191.25 276.98 191.25
  L 301.79 191.25
  Q 321.76 191.39 341.74 191.14
  Q 342.30 191.13 343.65 190.74
  Q 343.70 190.65 343.88 190.63
  Q 344.06 190.61 344.15 190.77
  Q 344.37 191.20 344.19 191.39
  Z"
/>
<path fill="#341266" d="
  M 366.79 191.93
  L 360.82 202.27
  Q 349.98 201.29 339.35 202.02
  A 1.45 1.42 25.6 0 0 338.59 202.28
  Q 338.29 202.49 337.92 202.57
  Q 338.04 201.85 338.57 200.94
  Q 342.00 197.08 344.19 191.39
  Q 345.61 191.36 346.71 190.88
  Q 346.97 190.77 347.19 190.95
  L 347.45 191.18
  Q 347.57 191.27 347.71 191.27
  Q 356.56 191.60 365.60 191.30
  Q 365.97 191.29 366.29 191.48
  Q 366.76 191.75 366.79 191.93
  Z"
/>
<path fill="#21d1eb" d="
  M 107.19 191.26
  L 107.58 191.51
  L 107.53 210.80
  L 99.51 210.91
  A 0.41 0.41 0.0 0 1 99.10 210.50
  L 99.10 192.00
  Q 99.10 191.43 99.66 191.42
  L 107.19 191.26
  Z"
/>
<path fill="#341266" d="
  M 141.68 191.81
  L 151.10 208.93
  Q 150.85 208.84 150.67 208.85
  Q 150.16 208.89 150.34 209.38
  L 150.46 209.68
  Q 150.59 210.03 150.24 210.12
  C 145.41 211.40 139.02 210.93 133.79 210.69
  Q 132.68 210.65 131.67 210.27
  Q 131.16 210.08 130.82 210.51
  L 130.45 211.00
  Q 130.26 210.43 130.47 210.21
  L 130.40 191.78
  L 130.67 191.56
  Q 130.97 191.33 131.34 191.32
  Q 135.68 191.19 140.00 191.34
  Q 141.06 191.38 141.68 191.81
  Z"
/>
<path fill="#fe025c" d="
  M 183.03 191.33
  Q 186.40 191.22 189.75 191.09
  Q 192.30 190.99 193.61 193.16
  Q 196.14 197.35 197.60 201.97
  L 188.98 201.88
  L 183.27 192.23
  Q 183.44 191.45 183.03 191.33
  Z"
/>
<path fill="#268cc4" d="
  M 379.86 192.27
  L 380.13 210.58
  Q 379.84 211.03 379.37 211.16
  L 367.53 210.98
  Q 366.97 210.98 366.98 211.53
  L 367.03 220.50
  Q 367.04 221.23 367.77 221.22
  L 379.47 221.03
  Q 379.99 221.76 379.69 221.29
  L 379.72 225.10
  Q 379.73 226.21 378.63 226.20
  L 360.12 226.02
  Q 360.32 223.73 359.05 223.53
  C 356.32 223.11 353.11 224.32 350.19 223.36
  A 0.26 0.25 9.7 0 1 350.01 223.12
  Q 350.01 222.62 348.79 222.34
  L 356.33 210.81
  L 360.82 202.27
  L 366.79 191.93
  L 378.91 191.52
  Q 379.31 191.50 379.39 191.90
  Q 379.46 192.28 379.86 192.27
  Z"
/>
<path fill="#feffff" d="
  M 411.51 191.20
  L 443.70 191.28
  Q 444.04 191.28 444.05 191.63
  L 444.14 200.36
  A 0.38 0.38 0.0 0 1 443.76 200.74
  L 412.20 200.75
  Q 411.59 200.75 411.59 200.15
  L 411.51 191.20
  Z"
/>
<path fill="#feffff" d="
  M 107.58 191.51
  L 130.40 191.78
  L 130.47 210.21
  Q 129.92 210.71 128.75 210.71
  Q 120.47 210.72 113.19 210.78
  L 107.53 210.80
  L 107.58 191.51
  Z"
/>
<path fill="#21d1eb" d="
  M 183.27 192.23
  L 188.98 201.88
  L 173.35 201.62
  A 0.38 0.38 0.0 0 0 173.01 202.17
  L 177.51 210.71
  Q 165.66 211.09 153.12 210.81
  Q 151.72 210.78 151.10 208.93
  L 141.68 191.81
  Q 141.87 191.75 142.03 191.63
  A 0.96 0.91 -61.8 0 1 142.63 191.43
  Q 167.31 191.85 174.25 191.73
  Q 180.25 191.63 183.27 192.23
  Z"
/>
<path fill="#3167b2" d="
  M 314.88 200.79
  L 338.57 200.94
  Q 338.04 201.85 337.92 202.57
  Q 336.18 205.34 334.67 208.24
  Q 333.74 210.03 334.65 211.29
  Q 334.20 211.59 333.95 210.54
  Q 333.91 210.34 333.86 210.53
  Q 333.80 210.74 333.65 210.92
  Q 333.25 211.40 332.81 211.72
  Q 332.57 211.23 331.49 211.30
  Q 322.99 211.84 314.83 211.22
  L 314.88 200.79
  Z"
/>
<path fill="#feffff" d="
  M 188.98 201.88
  L 197.60 201.97
  L 210.25 202.00
  L 214.67 209.71
  Q 215.14 210.52 214.19 210.52
  L 193.58 210.55
  L 177.51 210.71
  L 173.01 202.17
  A 0.38 0.38 0.0 0 1 173.35 201.62
  L 188.98 201.88
  Z"
/>
<path fill="#fe025c" d="
  M 360.82 202.27
  L 356.33 210.81
  L 334.65 211.29
  Q 333.74 210.03 334.67 208.24
  Q 336.18 205.34 337.92 202.57
  Q 338.29 202.49 338.59 202.28
  A 1.45 1.42 25.6 0 1 339.35 202.02
  Q 349.98 201.29 360.82 202.27
  Z"
/>
<path fill="#fe025c" d="
  M 210.25 202.00
  L 226.82 202.60
  A 0.94 0.94 0.0 0 1 227.72 203.53
  L 227.83 220.23
  A 0.87 0.86 -84.3 0 1 226.80 221.08
  Q 224.06 220.54 220.98 221.19
  Q 220.72 221.19 220.48 221.15
  Q 220.32 221.12 220.46 221.04
  Q 220.51 221.01 220.51 220.95
  Q 220.51 220.75 220.30 220.74
  Q 215.32 220.60 210.41 221.03
  L 199.83 221.24
  Q 198.59 220.75 198.83 221.10
  L 193.58 210.55
  L 214.19 210.52
  Q 215.14 210.52 214.67 209.71
  L 210.25 202.00
  Z"
/>
<path fill="#3e2283" d="
  M 334.65 211.29
  L 356.33 210.81
  L 348.79 222.34
  L 348.41 227.23
  Q 348.30 226.26 348.28 226.17
  Q 347.97 224.02 347.03 225.99
  Q 342.61 235.33 337.02 244.94
  A 2.16 2.15 -75.5 0 1 335.19 246.02
  Q 327.81 246.15 320.09 245.78
  Q 318.51 245.71 316.99 246.06
  Q 316.50 246.17 315.99 245.97
  Q 315.79 245.89 315.64 245.75
  Q 315.31 245.41 314.84 245.49
  L 312.38 245.95
  L 332.81 211.72
  Q 333.25 211.40 333.65 210.92
  Q 333.80 210.74 333.86 210.53
  Q 333.91 210.34 333.95 210.54
  Q 334.20 211.59 334.65 211.29
  Z"
/>
<path fill="#3173bb" d="
  M 130.47 210.21
  Q 130.26 210.43 130.45 211.00
  L 130.53 219.69
  Q 130.54 220.74 129.48 220.74
  L 114.23 220.76
  A 0.76 0.76 0.0 0 1 113.47 220.02
  L 113.19 210.78
  Q 120.47 210.72 128.75 210.71
  Q 129.92 210.71 130.47 210.21
  Z"
/>
<path fill="#fe025c" d="
  M 380.13 210.58
  L 420.26 210.64
  A 0.46 0.45 88.0 0 1 420.71 211.07
  Q 420.96 215.78 420.57 220.36
  Q 420.52 220.95 419.92 220.96
  L 396.06 221.22
  L 379.69 221.29
  Q 379.99 221.76 379.47 221.03
  L 379.37 211.16
  Q 379.84 211.03 380.13 210.58
  Z"
/>
<path fill="#21d1eb" d="
  M 314.83 211.22
  Q 322.99 211.84 331.49 211.30
  Q 332.57 211.23 332.81 211.72
  L 312.38 245.95
  L 271.82 246.30
  A 0.50 0.50 0.0 0 1 271.39 245.54
  Q 278.08 234.80 283.59 224.02
  C 285.68 219.93 288.49 216.21 290.54 212.11
  A 2.07 2.04 13.3 0 1 292.40 210.98
  L 314.83 211.22
  Z"
/>
<path fill="#341266" d="
  M 220.98 221.19
  Q 220.65 221.46 220.53 221.70
  Q 220.42 221.92 220.64 222.27
  Q 222.45 225.12 224.59 227.78
  Q 219.44 228.58 214.61 227.88
  L 210.41 221.03
  Q 215.32 220.60 220.30 220.74
  Q 220.51 220.75 220.51 220.95
  Q 220.51 221.01 220.46 221.04
  Q 220.32 221.12 220.48 221.15
  Q 220.72 221.19 220.98 221.19
  Z"
/>
<path fill="#3173bb" d="
  M 198.83 221.10
  Q 198.59 220.75 199.83 221.24
  L 202.36 226.54
  Q 202.27 226.85 202.01 226.81
  Q 193.79 225.56 185.48 226.12
  Q 185.24 226.14 185.04 226.25
  Q 184.87 226.35 184.65 226.48
  Q 184.00 226.01 183.50 226.02
  Q 178.38 226.15 173.22 226.05
  Q 172.72 226.04 172.38 225.67
  Q 170.61 223.73 169.65 221.22
  L 198.83 221.10
  Z"
/>
<path fill="#feffff" d="
  M 169.65 221.22
  Q 170.61 223.73 172.38 225.67
  Q 172.72 226.04 173.22 226.05
  Q 178.38 226.15 183.50 226.02
  Q 184.00 226.01 184.65 226.48
  Q 186.12 230.74 189.53 234.08
  L 166.06 234.18
  Q 165.54 234.19 165.28 233.72
  L 158.63 221.76
  Q 158.34 221.22 158.95 221.22
  L 169.65 221.22
  Z"
/>
<path fill="#feffff" d="
  M 199.83 221.24
  L 210.41 221.03
  L 214.61 227.88
  L 203.20 227.87
  Q 203.00 227.17 202.36 226.54
  L 199.83 221.24
  Z"
/>
<path fill="#feffff" d="
  M 396.06 221.22
  L 396.14 226.61
  Q 396.75 228.91 395.26 228.96
  Q 390.71 229.13 386.66 228.95
  Q 386.04 228.92 386.03 229.55
  L 385.97 233.79
  Q 385.96 234.48 386.65 234.48
  L 396.79 234.45
  L 410.71 234.50
  Q 411.24 234.50 411.28 235.02
  L 411.65 239.47
  Q 410.97 239.89 410.00 239.88
  Q 403.28 239.79 395.98 239.79
  L 360.37 239.52
  A 0.29 0.29 0.0 0 1 360.08 239.22
  L 360.12 226.02
  L 378.63 226.20
  Q 379.73 226.21 379.72 225.10
  L 379.69 221.29
  L 396.06 221.22
  Z"
/>
<path fill="#21d1eb" d="
  M 348.79 222.34
  Q 350.01 222.62 350.01 223.12
  A 0.26 0.25 9.7 0 0 350.19 223.36
  C 353.11 224.32 356.32 223.11 359.05 223.53
  Q 360.32 223.73 360.12 226.02
  L 360.08 239.22
  A 0.29 0.29 0.0 0 0 360.37 239.52
  L 395.98 239.79
  L 396.29 245.63
  Q 390.09 245.40 384.00 245.61
  Q 379.77 245.76 373.01 245.78
  Q 367.49 245.79 362.00 246.34
  L 349.03 246.20
  A 0.49 0.49 0.0 0 1 348.54 245.71
  L 348.41 227.23
  L 348.79 222.34
  Z"
/>
<path fill="#21d1eb" d="
  M 202.36 226.54
  Q 203.00 227.17 203.20 227.87
  L 206.76 233.56
  Q 206.88 233.88 206.58 234.06
  L 189.53 234.08
  Q 186.12 230.74 184.65 226.48
  Q 184.87 226.35 185.04 226.25
  Q 185.24 226.14 185.48 226.12
  Q 193.79 225.56 202.01 226.81
  Q 202.27 226.85 202.36 226.54
  Z"
/>
<path fill="#fe025c" d="
  M 396.79 234.45
  L 386.65 234.48
  Q 385.96 234.48 385.97 233.79
  L 386.03 229.55
  Q 386.04 228.92 386.66 228.95
  Q 390.71 229.13 395.26 228.96
  Q 396.75 228.91 396.14 226.61
  L 410.45 226.51
  Q 411.42 226.50 411.44 227.47
  L 411.48 228.72
  A 0.95 0.95 0.0 0 1 410.53 229.70
  L 397.26 229.62
  Q 396.73 229.62 396.65 230.15
  Q 396.30 232.40 396.79 234.45
  Z"
/>
<path fill="#fe025c" d="
  M 203.20 227.87
  L 214.61 227.88
  Q 219.44 228.58 224.59 227.78
  Q 227.13 230.81 228.15 234.32
  Q 218.62 234.13 209.00 234.20
  Q 208.28 234.20 206.76 233.56
  L 203.20 227.87
  Z"
/>
<path fill="#fe025c" d="
  M 149.48 234.52
  L 130.14 233.93
  L 130.59 228.74
  Q 130.64 228.21 131.17 228.21
  L 148.82 228.20
  A 0.82 0.81 -5.6 0 1 149.62 228.85
  Q 150.21 231.79 149.48 234.52
  Z"
/>
<path fill="#3f3798" d="
  M 206.76 233.56
  Q 208.28 234.20 209.00 234.20
  Q 218.62 234.13 228.15 234.32
  L 233.73 242.95
  L 213.43 242.47
  Q 211.37 242.42 212.43 244.19
  C 214.88 248.28 217.49 252.17 219.45 256.64
  A 0.70 0.70 0.0 0 1 218.63 257.60
  Q 214.09 256.45 209.12 257.53
  Q 207.41 255.21 205.96 252.49
  C 204.87 250.44 203.01 251.14 201.14 251.05
  A 1.19 1.18 -16.5 0 1 200.25 250.57
  Q 197.85 247.30 196.87 243.13
  L 210.43 243.14
  Q 212.17 243.14 211.26 241.65
  L 206.58 234.06
  Q 206.88 233.88 206.76 233.56
  Z"
/>
<path fill="#feffff" d="
  M 447.81 233.95
  L 447.96 239.99
  L 430.23 240.08
  Q 425.59 239.95 420.79 239.89
  Q 420.54 239.89 420.40 239.80
  Q 420.22 239.69 420.11 239.50
  L 420.06 234.41
  Q 420.06 233.88 420.59 233.88
  L 447.81 233.95
  Z"
/>
<path fill="#21d1eb" d="
  M 451.79 234.07
  L 451.58 239.86
  L 447.96 239.99
  L 447.81 233.95
  Q 449.80 233.63 451.79 234.07
  Z"
/>
<path fill="#fe025c" d="
  M 451.58 239.86
  L 451.79 234.07
  Q 454.82 233.59 458.04 234.40
  Q 458.71 234.56 458.72 235.25
  L 458.78 239.05
  A 0.96 0.96 0.0 0 1 457.80 240.03
  L 451.58 239.86
  Z"
/>
<rect fill="#fe025c" x="-2.51" y="-2.71" transform="translate(77.29,236.88) rotate(-1.2)" width="5.02" height="5.42" rx="0.68"/>
<path fill="#341266" d="
  M 130.14 233.93
  L 149.48 234.52
  L 149.55 243.20
  Q 148.87 243.65 148.37 243.63
  Q 140.17 243.19 130.52 243.77
  Q 129.79 243.10 130.17 243.61
  Q 131.05 238.90 129.92 234.79
  Q 129.83 234.44 130.14 233.93
  Z"
/>
<path fill="#fe025c" d="
  M 244.90 239.39
  L 240.99 239.41
  A 0.61 0.61 0.0 0 1 240.38 238.78
  L 240.51 234.87
  A 0.61 0.61 0.0 0 1 241.11 234.28
  L 244.58 234.23
  A 0.61 0.61 0.0 0 1 245.20 234.79
  L 245.51 238.73
  A 0.61 0.61 0.0 0 1 244.90 239.39
  Z"
/>
<path fill="#3173bb" d="
  M 129.92 234.79
  Q 131.05 238.90 130.17 243.61
  L 98.92 243.76
  Q 98.23 243.40 98.86 243.56
  L 98.91 235.68
  Q 98.91 234.90 99.70 234.89
  L 129.92 234.79
  Z"
/>
<path fill="#3f3798" d="
  M 411.65 239.47
  Q 411.72 239.59 411.82 239.70
  A 0.48 0.48 0.0 0 0 412.19 239.85
  Q 415.85 239.74 419.50 240.00
  Q 419.91 240.03 420.11 239.50
  Q 420.22 239.69 420.40 239.80
  Q 420.54 239.89 420.79 239.89
  Q 425.59 239.95 430.23 240.08
  Q 430.93 240.86 432.20 241.25
  A 0.84 0.84 0.0 0 1 432.80 242.01
  L 433.18 248.66
  Q 433.27 250.14 431.79 250.16
  Q 423.54 250.26 415.25 250.18
  Q 413.23 250.16 411.21 249.80
  Q 408.17 249.26 407.23 249.24
  Q 401.82 249.11 396.47 249.42
  L 392.52 249.01
  L 396.11 248.81
  Q 396.62 248.78 396.47 248.29
  Q 395.95 246.60 396.29 245.63
  L 395.98 239.79
  Q 403.28 239.79 410.00 239.88
  Q 410.97 239.89 411.65 239.47
  Z"
/>
<rect fill="#21d1eb" x="-3.65" y="-4.66" transform="translate(65.32,246.63) rotate(0.3)" width="7.30" height="9.32" rx="0.58"/>
<path fill="#3173bb" d="
  M 233.73 242.95
  L 241.47 257.20
  L 222.13 257.07
  A 1.41 1.41 0.0 0 0 220.90 259.19
  L 223.57 263.79
  L 227.26 269.97
  L 203.99 269.86
  Q 207.49 270.48 203.78 264.85
  A 0.56 0.56 0.0 0 1 204.26 263.98
  L 212.34 264.16
  A 0.78 0.77 -17.2 0 0 212.99 262.94
  L 209.12 257.53
  Q 214.09 256.45 218.63 257.60
  A 0.70 0.70 0.0 0 0 219.45 256.64
  C 217.49 252.17 214.88 248.28 212.43 244.19
  Q 211.37 242.42 213.43 242.47
  L 233.73 242.95
  Z"
/>
<path fill="#fe025c" d="
  M 98.86 243.56
  Q 98.23 243.40 98.92 243.76
  L 98.86 251.60
  L 82.53 251.64
  Q 81.72 251.64 81.71 250.82
  L 81.70 243.61
  A 0.61 0.61 0.0 0 1 82.32 243.00
  L 96.59 243.13
  Q 97.13 243.13 97.66 243.26
  L 98.86 243.56
  Z"
/>
<path fill="#21d1eb" d="
  M 196.87 243.13
  Q 197.85 247.30 200.25 250.57
  A 1.19 1.18 -16.5 0 0 201.14 251.05
  C 203.01 251.14 204.87 250.44 205.96 252.49
  Q 207.41 255.21 209.12 257.53
  L 212.99 262.94
  A 0.78 0.77 -17.2 0 1 212.34 264.16
  L 204.26 263.98
  A 0.56 0.56 0.0 0 0 203.78 264.85
  Q 207.49 270.48 203.99 269.86
  L 185.94 269.75
  A 1.94 1.94 0.0 0 1 184.24 268.71
  L 171.15 243.75
  A 0.56 0.56 0.0 0 1 171.65 242.93
  L 196.87 243.13
  Z"
/>
<path fill="#fe025c" d="
  M 149.55 243.20
  Q 150.48 247.78 149.52 251.57
  L 130.50 251.44
  L 130.52 243.77
  Q 140.17 243.19 148.37 243.63
  Q 148.87 243.65 149.55 243.20
  Z"
/>
<path fill="#feffff" d="
  M 130.17 243.61
  Q 129.79 243.10 130.52 243.77
  L 130.50 251.44
  L 130.50 266.85
  L 130.48 273.32
  Q 120.19 272.89 110.00 273.03
  Q 108.89 273.04 107.97 273.51
  Q 107.27 273.40 107.30 272.50
  Q 107.61 262.38 107.48 252.58
  A 1.19 1.19 0.0 0 0 106.26 251.41
  L 98.86 251.60
  L 98.92 243.76
  L 130.17 243.61
  Z"
/>
<path fill="#3173bb" d="
  M 396.29 245.63
  Q 395.95 246.60 396.47 248.29
  Q 396.62 248.78 396.11 248.81
  L 392.52 249.01
  L 381.09 249.21
  A 1.57 1.57 0.0 0 0 379.55 250.87
  L 379.84 256.42
  A 1.14 1.13 -1.9 0 1 378.71 257.62
  L 361.43 257.69
  L 362.00 246.34
  Q 367.49 245.79 373.01 245.78
  Q 379.77 245.76 384.00 245.61
  Q 390.09 245.40 396.29 245.63
  Z"
/>
<path fill="#fe025c" d="
  M 392.52 249.01
  L 396.47 249.42
  Q 396.23 256.73 396.21 263.75
  Q 396.21 264.06 395.83 264.21
  Q 387.26 263.42 379.04 264.07
  L 360.86 264.03
  L 348.79 264.50
  Q 348.07 264.14 346.99 264.12
  Q 338.66 263.98 330.32 264.04
  Q 329.68 264.04 328.20 264.26
  Q 326.96 264.45 326.02 264.23
  Q 314.79 263.23 303.40 264.06
  Q 302.95 264.09 302.59 263.82
  Q 302.28 263.58 302.01 263.73
  L 304.99 257.71
  L 361.43 257.69
  L 378.71 257.62
  A 1.14 1.13 -1.9 0 0 379.84 256.42
  L 379.55 250.87
  A 1.57 1.57 0.0 0 1 381.09 249.21
  L 392.52 249.01
  Z"
/>
<path fill="#341266" d="
  M 130.50 251.44
  L 149.52 251.57
  L 149.86 266.88
  L 130.50 266.85
  L 130.50 251.44
  Z"
/>
<path fill="#21d1eb" d="
  M 98.86 251.60
  L 106.26 251.41
  A 1.19 1.19 0.0 0 1 107.48 252.58
  Q 107.61 262.38 107.30 272.50
  Q 107.27 273.40 107.97 273.51
  L 108.07 275.54
  Q 108.15 275.86 108.12 276.11
  Q 108.06 276.62 107.55 276.65
  L 100.24 277.02
  Q 99.70 277.05 99.36 276.62
  Q 98.59 275.67 98.84 274.35
  L 98.86 251.60
  Z"
/>
<path fill="#fe025c" d="
  M 241.47 257.20
  L 245.74 263.78
  L 223.57 263.79
  L 220.90 259.19
  A 1.41 1.41 0.0 0 1 222.13 257.07
  L 241.47 257.20
  Z"
/>
<path fill="#21d1eb" d="
  M 286.37 257.63
  L 281.75 263.91
  Q 280.94 263.69 279.94 264.69
  Q 276.66 268.00 275.08 272.59
  L 256.03 272.56
  Q 255.40 272.56 255.70 272.00
  L 263.45 257.86
  Q 263.74 257.35 264.33 257.35
  L 286.37 257.63
  Z"
/>
<path fill="#feffff" d="
  M 286.37 257.63
  L 304.99 257.71
  L 302.01 263.73
  L 301.71 264.05
  L 281.75 263.91
  L 286.37 257.63
  Z"
/>
<path fill="#341266" d="
  M 223.57 263.79
  L 245.74 263.78
  L 248.52 269.03
  A 0.86 0.85 76.6 0 1 247.75 270.29
  L 227.26 269.97
  L 223.57 263.79
  Z"
/>
<path fill="#268cc4" d="
  M 301.71 264.05
  Q 301.17 264.41 301.54 265.18
  L 299.47 269.35
  Q 299.14 269.53 298.79 270.27
  Q 297.87 271.85 296.75 272.70
  L 275.08 272.59
  Q 276.66 268.00 279.94 264.69
  Q 280.94 263.69 281.75 263.91
  L 301.71 264.05
  Z"
/>
<path fill="#341266" d="
  M 302.01 263.73
  Q 302.28 263.58 302.59 263.82
  Q 302.95 264.09 303.40 264.06
  Q 314.79 263.23 326.02 264.23
  Q 326.23 266.71 324.46 269.63
  L 310.92 269.89
  Q 307.14 269.82 303.28 269.86
  C 301.80 269.88 300.50 269.22 298.79 270.27
  Q 299.14 269.53 299.47 269.35
  Q 300.61 269.54 301.05 268.62
  C 301.58 267.54 300.73 266.29 301.89 265.42
  Q 302.26 265.14 302.42 264.69
  Q 302.71 263.87 302.01 264.38
  Q 301.72 264.59 301.54 265.18
  Q 301.17 264.41 301.71 264.05
  L 302.01 263.73
  Z"
/>
<path fill="#3167b2" d="
  M 360.86 264.03
  L 360.19 272.37
  L 349.33 272.24
  Q 348.07 272.22 348.19 270.97
  L 348.79 264.50
  L 360.86 264.03
  Z"
/>
<path fill="#341266" d="
  M 395.83 264.21
  L 395.56 264.70
  A 1.43 1.37 -33.1 0 0 395.39 265.44
  L 395.87 273.51
  L 379.55 273.50
  Q 379.58 273.30 379.01 272.61
  Q 379.59 272.63 379.69 272.00
  Q 380.25 268.46 379.04 264.07
  Q 387.26 263.42 395.83 264.21
  Z"
/>
<path fill="#268cc4" d="
  M 379.04 264.07
  Q 380.25 268.46 379.69 272.00
  Q 379.59 272.63 379.01 272.61
  L 360.19 272.37
  L 360.86 264.03
  L 379.04 264.07
  Z"
/>
<path fill="#3f3798" d="
  M 149.86 266.88
  L 149.89 283.21
  L 131.89 282.62
  Q 131.38 282.60 131.21 283.09
  L 130.90 284.04
  Q 130.83 281.90 126.25 282.13
  Q 119.30 282.48 112.38 281.77
  C 110.35 281.56 108.86 278.23 108.55 276.79
  L 129.24 276.75
  A 1.63 1.63 0.0 0 0 130.87 275.12
  Q 130.87 274.19 130.48 273.32
  L 130.50 266.85
  L 149.86 266.88
  Z"
/>
<path fill="#fe025c" d="
  M 310.92 269.89
  C 310.94 271.18 311.47 272.34 312.85 272.70
  C 315.97 273.52 320.40 273.29 323.11 273.13
  Q 321.35 277.66 317.86 282.25
  Q 305.88 282.78 297.25 282.68
  C 292.50 282.63 294.05 285.90 291.15 286.85
  Q 289.69 287.33 289.14 285.85
  L 290.64 282.18
  Q 294.12 278.62 296.75 272.70
  Q 297.87 271.85 298.79 270.27
  C 300.50 269.22 301.80 269.88 303.28 269.86
  Q 307.14 269.82 310.92 269.89
  Z"
/>
<path fill="#3167b2" d="
  M 324.46 269.63
  L 323.11 273.13
  C 320.40 273.29 315.97 273.52 312.85 272.70
  C 311.47 272.34 310.94 271.18 310.92 269.89
  L 324.46 269.63
  Z"
/>
<path fill="#feffff" d="
  M 178.85 270.48
  L 179.14 277.17
  L 164.19 276.98
  Q 163.76 276.97 163.76 276.54
  L 163.71 270.97
  Q 163.71 270.59 164.09 270.58
  L 178.85 270.48
  Z"
/>
<path fill="#3173bb" d="
  M 178.85 270.48
  L 182.62 270.58
  Q 184.08 270.61 184.21 272.07
  L 184.57 275.97
  Q 184.69 277.34 183.32 277.30
  L 179.14 277.17
  L 178.85 270.48
  Z"
/>
<path fill="#fe025c" d="
  M 130.48 273.32
  Q 130.87 274.19 130.87 275.12
  A 1.63 1.63 0.0 0 1 129.24 276.75
  L 108.55 276.79
  Q 108.07 276.49 108.07 275.54
  L 107.97 273.51
  Q 108.89 273.04 110.00 273.03
  Q 120.19 272.89 130.48 273.32
  Z"
/>
<path fill="#fe025c" d="
  M 395.87 273.51
  L 418.44 273.62
  A 0.56 0.55 89.5 0 1 418.99 274.17
  L 419.11 281.77
  Q 419.12 282.23 418.66 282.23
  Q 400.41 282.43 382.75 282.53
  Q 382.03 282.53 380.19 282.95
  Q 379.82 282.75 379.57 282.27
  L 379.55 273.50
  L 395.87 273.51
  Z"
/>
<path fill="#3173bb" d="
  M 98.84 274.35
  Q 98.59 275.67 99.36 276.62
  Q 99.70 277.05 100.24 277.02
  L 107.55 276.65
  Q 108.06 276.62 108.12 276.11
  Q 108.15 275.86 108.07 275.54
  Q 108.07 276.49 108.55 276.79
  C 108.86 278.23 110.35 281.56 112.38 281.77
  Q 119.30 282.48 126.25 282.13
  Q 130.83 281.90 130.90 284.04
  C 130.54 287.83 130.20 290.16 131.36 293.17
  L 130.44 294.92
  L 107.96 294.61
  L 99.01 294.71
  L 99.00 286.29
  Q 99.00 285.26 97.97 285.27
  L 79.74 285.46
  A 0.72 0.72 0.0 0 1 79.01 284.74
  L 79.02 274.79
  A 0.69 0.69 0.0 0 1 79.72 274.10
  L 98.84 274.35
  Z"
/>
<path fill="#21d1eb" d="
  M 198.91 282.08
  L 200.63 286.43
  L 194.05 286.49
  Q 193.42 286.50 193.14 285.93
  L 191.56 282.68
  Q 191.27 282.07 191.94 282.07
  L 198.91 282.08
  Z"
/>
<path fill="#3173bb" d="
  M 198.91 282.08
  L 246.39 281.97
  L 247.32 285.76
  Q 247.45 286.28 246.91 286.26
  L 237.42 285.99
  A 0.49 0.48 76.1 0 0 236.99 286.71
  L 246.74 304.26
  L 213.71 304.20
  L 202.16 304.25
  Q 201.82 304.19 201.44 303.83
  Q 197.62 299.24 197.11 294.77
  L 209.20 294.67
  L 223.09 295.06
  Q 225.32 295.12 224.04 293.29
  Q 221.86 290.19 219.51 287.73
  Q 217.79 285.92 215.29 285.94
  L 204.32 286.01
  Q 202.38 286.72 200.63 286.43
  L 198.91 282.08
  Z"
/>
<path fill="#21d1eb" d="
  M 246.39 281.97
  L 290.64 282.18
  L 289.14 285.85
  L 287.81 287.29
  L 281.12 287.11
  A 1.56 1.56 0.0 0 0 279.75 287.83
  L 275.59 294.25
  Q 275.16 294.92 275.96 294.90
  L 283.59 294.80
  L 279.22 303.21
  L 278.42 304.13
  L 246.74 304.26
  L 236.99 286.71
  A 0.49 0.48 76.1 0 1 237.42 285.99
  L 246.91 286.26
  Q 247.45 286.28 247.32 285.76
  L 246.39 281.97
  Z"
/>
<path fill="#3e2283" d="
  M 317.86 282.25
  L 306.15 302.69
  A 2.07 2.05 -75.2 0 1 304.38 303.73
  Q 294.65 303.84 284.28 303.74
  Q 282.15 303.72 280.23 303.24
  Q 279.84 302.60 279.22 303.21
  L 283.59 294.80
  L 287.81 287.29
  L 289.14 285.85
  Q 289.69 287.33 291.15 286.85
  C 294.05 285.90 292.50 282.63 297.25 282.68
  Q 305.88 282.78 317.86 282.25
  Z"
/>
<path fill="#268cc4" d="
  M 379.57 282.27
  Q 379.82 282.75 380.19 282.95
  L 379.95 286.73
  L 379.75 294.89
  L 367.32 294.69
  Q 365.43 293.62 364.76 294.71
  L 360.48 294.94
  L 348.43 294.96
  L 348.41 283.76
  A 0.91 0.90 90.0 0 1 349.31 282.85
  Q 364.59 282.88 379.11 282.69
  Q 379.27 282.69 379.39 282.59
  Q 379.61 282.43 379.57 282.27
  Z"
/>
<path fill="#fe025c" d="
  M 149.89 283.21
  L 149.69 293.52
  L 131.36 293.17
  C 130.20 290.16 130.54 287.83 130.90 284.04
  L 131.21 283.09
  Q 131.38 282.60 131.89 282.62
  L 149.89 283.21
  Z"
/>
<path fill="#21d1eb" d="
  M 209.20 294.67
  L 204.32 286.01
  L 215.29 285.94
  Q 217.79 285.92 219.51 287.73
  Q 221.86 290.19 224.04 293.29
  Q 225.32 295.12 223.09 295.06
  L 209.20 294.67
  Z"
/>
<path fill="#fe025c" d="
  M 379.95 286.73
  L 408.86 286.81
  A 0.95 0.94 0.0 0 1 409.80 287.74
  L 409.94 294.82
  L 379.75 294.89
  L 379.95 286.73
  Z"
/>
<path fill="#3173bb" d="
  M 287.81 287.29
  L 283.59 294.80
  L 275.96 294.90
  Q 275.16 294.92 275.59 294.25
  L 279.75 287.83
  A 1.56 1.56 0.0 0 1 281.12 287.11
  L 287.81 287.29
  Z"
/>
<path fill="#3f3798" d="
  M 131.36 293.17
  L 149.69 293.52
  Q 148.25 296.98 149.67 300.02
  L 130.53 300.33
  L 130.44 294.92
  L 131.36 293.17
  Z"
/>
<path fill="#3167b2" d="
  M 367.32 294.69
  Q 366.93 294.81 366.80 294.93
  Q 365.88 294.60 364.76 294.71
  Q 365.43 293.62 367.32 294.69
  Z"
/>
<path fill="#21d1eb" d="
  M 107.96 294.61
  L 107.61 307.76
  L 99.65 307.69
  Q 99.12 307.68 99.11 307.15
  L 99.01 294.71
  L 107.96 294.61
  Z"
/>
<path fill="#feffff" d="
  M 107.96 294.61
  L 130.44 294.92
  L 130.53 300.33
  L 130.46 307.74
  L 107.61 307.76
  L 107.96 294.61
  Z"
/>
<path fill="#feffff" d="
  M 188.82 295.07
  L 193.73 303.93
  L 177.87 303.97
  Q 177.64 303.97 177.63 303.74
  L 177.61 295.12
  Q 177.61 294.91 177.82 294.91
  L 188.82 295.07
  Z"
/>
<path fill="#21d1eb" d="
  M 197.11 294.77
  Q 197.62 299.24 201.44 303.83
  L 193.73 303.93
  L 188.82 295.07
  L 197.11 294.77
  Z"
/>
<path fill="#fe025c" d="
  M 364.76 294.71
  Q 365.88 294.60 366.80 294.93
  L 367.15 304.02
  A 0.45 0.45 0.0 0 1 366.69 304.49
  L 361.00 304.36
  Q 360.53 304.35 360.53 303.88
  L 360.48 294.94
  L 364.76 294.71
  Z"
/>
<path fill="#feffff" d="
  M 367.32 294.69
  L 379.75 294.89
  L 409.94 294.82
  L 434.65 294.79
  Q 434.87 294.79 434.88 295.02
  L 435.02 303.55
  A 0.31 0.30 90.0 0 1 434.72 303.86
  L 396.24 303.84
  L 380.09 303.83
  A 0.44 0.44 0.0 0 0 379.65 304.27
  L 379.68 323.11
  L 360.08 323.10
  L 360.27 304.43
  A 0.45 0.44 -90.0 0 0 359.83 303.98
  L 348.48 303.75
  L 348.43 294.96
  L 360.48 294.94
  L 360.53 303.88
  Q 360.53 304.35 361.00 304.36
  L 366.69 304.49
  A 0.45 0.45 0.0 0 0 367.15 304.02
  L 366.80 294.93
  Q 366.93 294.81 367.32 294.69
  Z"
/>
<path fill="#fe025c" d="
  M 149.67 300.02
  L 149.48 307.37
  Q 149.47 307.90 148.94 307.90
  L 130.46 307.74
  L 130.53 300.33
  L 149.67 300.02
  Z"
/>
<path fill="#21d1eb" d="
  M 348.48 303.75
  L 359.83 303.98
  A 0.45 0.44 -90.0 0 1 360.27 304.43
  L 360.08 323.10
  L 348.51 323.51
  L 348.48 303.75
  Z"
/>
<path fill="#fe025c" d="
  M 396.24 303.84
  L 396.26 321.97
  A 0.72 0.72 0.0 0 0 396.99 322.69
  L 411.18 322.60
  A 0.33 0.33 0.0 0 1 411.52 322.93
  L 411.55 332.72
  A 0.97 0.97 0.0 0 1 410.59 333.69
  L 380.02 333.84
  L 379.68 323.11
  L 379.65 304.27
  A 0.44 0.44 0.0 0 1 380.09 303.83
  L 396.24 303.84
  Z"
/>
<path fill="#21d1eb" d="
  M 213.71 304.20
  L 227.46 328.98
  L 217.01 330.49
  L 202.16 304.25
  L 213.71 304.20
  Z"
/>
<path fill="#feffff" d="
  M 278.42 304.13
  L 273.58 312.21
  A 2.07 2.06 15.4 0 1 271.81 313.21
  L 251.18 313.19
  L 240.20 313.24
  Q 238.86 313.24 239.55 314.39
  L 244.37 322.38
  Q 244.66 322.86 244.10 322.86
  L 236.71 322.94
  L 233.97 322.97
  A 0.68 0.67 -15.1 0 0 233.39 323.97
  L 237.19 330.80
  Q 237.80 331.90 236.54 331.95
  L 229.60 332.22
  Q 228.20 330.83 227.46 328.98
  L 213.71 304.20
  L 246.74 304.26
  L 278.42 304.13
  Z"
/>
<path fill="#fe025c" d="
  M 317.08 305.15
  L 327.55 305.24
  A 0.73 0.73 0.0 0 1 328.27 305.99
  L 328.13 312.54
  A 0.73 0.73 0.0 0 1 327.40 313.26
  L 310.27 313.38
  A 0.73 0.73 0.0 0 1 309.75 312.13
  L 316.56 305.36
  A 0.73 0.73 0.0 0 1 317.08 305.15
  Z"
/>
<rect fill="#fe025c" x="429.05" y="305.10" width="15.86" height="7.90" rx="0.97"/>
<path fill="#3173bb" d="
  M 251.18 313.19
  L 255.96 321.34
  Q 256.71 322.62 258.20 322.59
  L 266.96 322.42
  Q 267.27 323.50 266.71 324.44
  Q 264.32 328.49 261.82 332.48
  Q 262.02 332.95 261.38 333.23
  L 243.77 333.04
  Q 242.39 333.03 241.71 331.83
  L 236.71 322.94
  L 244.10 322.86
  Q 244.66 322.86 244.37 322.38
  L 239.55 314.39
  Q 238.86 313.24 240.20 313.24
  L 251.18 313.19
  Z"
/>
<path fill="#fe025c" d="
  M 297.00 322.68
  L 268.70 322.46
  Q 268.42 322.45 268.36 322.18
  Q 268.32 321.97 268.15 321.86
  L 272.66 314.80
  A 1.81 1.80 16.0 0 1 274.19 313.96
  L 303.07 313.96
  A 0.72 0.71 10.6 0 1 303.74 314.93
  Q 300.99 322.03 297.00 322.68
  Z"
/>
<path fill="#3f3798" d="
  M 130.53 318.13
  L 130.86 325.75
  Q 130.04 325.98 130.14 326.17
  L 98.66 325.68
  L 88.57 325.78
  L 85.55 325.67
  Q 85.91 325.62 86.05 325.44
  A 0.37 0.37 0.0 0 0 85.91 324.89
  Q 84.64 324.32 82.95 324.75
  L 77.75 325.35
  Q 76.79 325.47 76.77 324.50
  L 76.67 319.47
  Q 76.65 318.45 77.67 318.44
  L 130.53 318.13
  Z"
/>
<path fill="#fe025c" d="
  M 130.53 318.13
  L 176.26 318.24
  Q 176.89 318.24 176.90 318.86
  L 177.05 324.80
  Q 177.07 325.49 176.37 325.50
  Q 163.65 325.70 151.50 325.76
  Q 150.68 325.77 149.22 326.27
  Q 148.66 325.90 147.87 325.88
  Q 137.97 325.57 130.86 325.75
  L 130.53 318.13
  Z"
/>
<path fill="#341266" d="
  M 268.15 321.86
  Q 268.32 321.97 268.36 322.18
  Q 268.42 322.45 268.70 322.46
  L 297.00 322.68
  Q 295.12 327.63 291.72 331.69
  C 291.33 332.16 291.35 332.55 291.40 333.12
  L 276.67 333.09
  Q 267.36 332.83 263.50 332.96
  Q 262.36 332.99 261.82 332.48
  Q 264.32 328.49 266.71 324.44
  Q 267.27 323.50 266.96 322.42
  Q 267.91 322.73 268.15 321.86
  Z"
/>
<path fill="#21d1eb" d="
  M 236.71 322.94
  L 241.71 331.83
  Q 242.39 333.03 243.77 333.04
  L 261.38 333.23
  L 256.83 341.91
  L 235.80 342.09
  Q 234.93 342.09 234.52 341.33
  L 229.60 332.22
  L 236.54 331.95
  Q 237.80 331.90 237.19 330.80
  L 233.39 323.97
  A 0.68 0.67 -15.1 0 1 233.97 322.97
  L 236.71 322.94
  Z"
/>
<path fill="#268cc4" d="
  M 360.08 323.10
  L 379.68 323.11
  L 380.02 333.84
  L 380.00 349.61
  A 1.01 1.00 -90.0 0 1 379.00 350.62
  L 349.41 350.56
  Q 348.52 350.56 348.51 349.66
  L 348.46 344.68
  Q 348.45 343.80 349.32 343.80
  L 361.99 343.78
  Q 362.75 343.78 362.74 343.01
  L 362.60 334.09
  Q 362.59 333.34 361.84 333.34
  L 348.93 333.37
  A 0.51 0.51 0.0 0 1 348.42 332.85
  L 348.51 323.51
  L 360.08 323.10
  Z"
/>
<path fill="#341266" d="
  M 82.95 324.75
  Q 84.64 324.32 85.91 324.89
  A 0.37 0.37 0.0 0 1 86.05 325.44
  Q 85.91 325.62 85.55 325.67
  Q 84.16 325.95 82.92 325.56
  L 83.41 325.37
  Q 83.93 325.17 83.39 325.06
  Q 82.99 324.98 82.95 324.75
  Z"
/>
<path fill="#feffff" d="
  M 82.92 325.56
  Q 84.16 325.95 85.55 325.67
  L 88.57 325.78
  L 88.62 333.57
  A 0.38 0.38 0.0 0 1 88.23 333.95
  L 82.36 333.93
  Q 82.04 333.93 82.03 333.61
  L 81.84 326.38
  Q 81.82 325.81 82.37 325.69
  L 82.92 325.56
  Z"
/>
<path fill="#3173bb" d="
  M 130.14 326.17
  L 130.44 334.53
  L 98.60 334.47
  L 98.66 325.68
  L 130.14 326.17
  Z"
/>
<path fill="#fe025c" d="
  M 69.49 326.25
  L 69.69 333.69
  Q 68.22 334.13 66.49 333.72
  L 66.30 326.13
  Q 67.97 325.52 69.49 326.25
  Z"
/>
<path fill="#feffff" d="
  M 69.69 333.69
  L 69.49 326.25
  Q 72.34 325.46 75.27 325.95
  Q 75.78 326.03 75.78 326.55
  L 75.80 333.25
  Q 75.80 333.81 75.23 333.80
  L 69.69 333.69
  Z"
/>
<path fill="#341266" d="
  M 130.86 325.75
  Q 137.97 325.57 147.87 325.88
  Q 148.66 325.90 149.22 326.27
  Q 148.90 326.41 148.71 326.58
  A 0.55 0.54 -39.8 0 0 148.64 327.32
  Q 150.47 329.69 150.10 333.01
  A 1.55 1.54 -8.9 0 0 152.27 334.59
  Q 153.07 334.22 153.61 333.46
  Q 153.95 332.97 154.52 333.15
  Q 157.63 334.12 161.26 334.03
  A 1.99 1.99 0.0 0 1 163.26 335.64
  Q 163.88 338.86 162.98 343.58
  L 130.48 343.70
  L 130.44 334.53
  L 130.14 326.17
  Q 130.04 325.98 130.86 325.75
  Z
  M 150.1018 334.9406
  A 0.26 0.26 0.0 0 0 149.8382 334.6843
  L 131.8200 334.9359
  A 0.26 0.26 0.0 0 0 131.5636 335.1995
  L 131.5782 336.2394
  A 0.26 0.26 0.0 0 0 131.8418 336.4957
  L 149.8600 336.2441
  A 0.26 0.26 0.0 0 0 150.1164 335.9805
  L 150.1018 334.9406
  Z"
/>
<path fill="#feffff" d="
  M 66.30 326.13
  L 66.49 333.72
  L 62.05 333.80
  Q 61.52 333.81 61.52 333.27
  L 61.56 326.72
  Q 61.57 326.16 62.12 326.08
  Q 64.12 325.76 66.30 326.13
  Z"
/>
<path fill="#268cc4" d="
  M 227.46 328.98
  Q 228.20 330.83 229.60 332.22
  L 234.52 341.33
  Q 234.93 342.09 235.80 342.09
  L 256.83 341.91
  Q 256.91 341.94 256.90 342.59
  Q 256.34 342.59 256.04 343.02
  Q 254.07 345.85 251.75 350.05
  A 0.89 0.88 -75.6 0 1 251.00 350.50
  L 227.19 350.76
  Q 225.84 346.86 224.62 345.13
  Q 220.07 338.59 217.01 330.49
  L 227.46 328.98
  Z"
/>
<path fill="#3f3798" d="
  M 261.82 332.48
  Q 262.36 332.99 263.50 332.96
  Q 267.36 332.83 276.67 333.09
  Q 275.89 335.02 274.51 336.70
  Q 273.43 338.01 272.54 339.70
  Q 271.49 341.70 270.08 342.47
  L 256.90 342.59
  Q 256.91 341.94 256.83 341.91
  L 261.38 333.23
  Q 262.02 332.95 261.82 332.48
  Z"
/>
<path fill="#fe025c" d="
  M 276.67 333.09
  L 291.40 333.12
  C 291.43 333.61 291.37 334.15 291.08 334.60
  Q 285.71 342.91 280.79 350.56
  L 264.92 350.42
  L 270.08 342.47
  Q 271.49 341.70 272.54 339.70
  Q 273.43 338.01 274.51 336.70
  Q 275.89 335.02 276.67 333.09
  Z"
/>
<rect fill="#21d1eb" x="-3.77" y="-1.94" transform="translate(426.58,335.34) rotate(-1.2)" width="7.54" height="3.88" rx="0.47"/>
<path fill="#feffff" d="
  M 98.60 334.47
  L 130.44 334.53
  L 130.48 343.70
  L 130.22 350.52
  L 107.63 350.54
  L 107.53 342.82
  A 0.73 0.73 0.0 0 0 106.78 342.10
  L 99.02 342.33
  L 89.66 342.43
  Q 89.04 342.43 89.04 341.81
  L 88.99 335.03
  Q 88.98 334.46 89.54 334.47
  L 98.60 334.47
  Z"
/>
<rect fill="#fe025c" x="-9.27" y="-0.78" transform="translate(140.84,335.59) rotate(-0.8)" width="18.54" height="1.56" rx="0.26"/>
<path fill="#3f3798" d="
  M 420.04 336.55
  A 0.27 0.27 0.0 0 1 419.77 336.82
  L 419.58 336.82
  A 4.54 1.15 0.0 0 1 415.04 335.67
  L 415.04 335.59
  A 4.54 1.15 0.0 0 1 419.58 334.44
  L 419.77 334.44
  A 0.27 0.27 0.0 0 1 420.04 334.71
  L 420.04 336.55
  Z"
/>
<path fill="#21d1eb" d="
  M 107.63 350.54
  L 99.64 350.62
  Q 99.14 350.62 99.13 350.12
  L 99.02 342.33
  L 106.78 342.10
  A 0.73 0.73 0.0 0 1 107.53 342.82
  L 107.63 350.54
  Z"
/>
<path fill="#feffff" d="
  M 270.08 342.47
  L 264.92 350.42
  L 259.03 360.44
  L 252.32 370.42
  Q 252.44 371.29 251.97 372.39
  L 244.16 360.12
  A 1.32 1.30 -16.3 0 0 243.03 359.51
  L 232.66 359.71
  L 197.66 359.70
  Q 197.25 359.70 197.25 359.29
  L 197.29 351.46
  Q 197.29 350.98 197.77 350.98
  L 227.19 350.76
  L 251.00 350.50
  A 0.89 0.88 -75.6 0 0 251.75 350.05
  Q 254.07 345.85 256.04 343.02
  Q 256.34 342.59 256.90 342.59
  L 270.08 342.47
  Z"
/>
<path fill="#fe025c" d="
  M 162.98 343.58
  L 176.45 343.68
  Q 177.01 343.68 177.01 344.25
  L 176.94 350.33
  Q 176.93 351.00 176.26 350.99
  L 151.09 350.80
  Q 149.72 350.79 149.73 352.16
  L 149.78 360.44
  Q 149.78 361.16 149.06 361.16
  L 131.19 361.16
  A 0.72 0.72 0.0 0 1 130.47 360.44
  L 130.48 350.98
  A 0.40 0.38 18.4 0 0 130.31 350.66
  Q 129.85 350.32 130.22 350.52
  L 130.48 343.70
  L 162.98 343.58
  Z"
/>
<path fill="#341266" d="
  M 264.92 350.42
  L 280.79 350.56
  Q 280.13 351.62 279.45 351.38
  Q 278.86 351.17 278.82 351.80
  Q 278.79 352.24 279.06 352.44
  Q 279.33 352.63 279.16 352.92
  L 274.56 360.87
  L 259.03 360.44
  L 264.92 350.42
  Z"
/>
<path fill="#fe025c" d="
  M 411.70 367.98
  L 406.20 361.16
  Q 405.88 360.77 405.38 360.77
  Q 392.69 360.72 380.10 360.81
  Q 380.01 360.81 379.95 360.87
  Q 379.86 360.96 379.77 361.05
  Q 380.04 360.94 379.62 360.61
  L 379.64 351.78
  A 1.11 1.11 0.0 0 1 380.75 350.68
  L 410.76 350.78
  A 0.46 0.45 89.3 0 1 411.21 351.23
  L 411.70 367.98
  Z"
/>
<rect fill="#21d1eb" x="-3.50" y="-4.09" transform="translate(451.53,355.59) rotate(0.1)" width="7.00" height="8.18" rx="0.66"/>
<path fill="#21d1eb" d="
  M 251.97 372.39
  L 252.56 386.20
  L 252.80 396.49
  L 232.66 359.71
  L 243.03 359.51
  A 1.32 1.30 -16.3 0 1 244.16 360.12
  L 251.97 372.39
  Z"
/>
<rect fill="#fe025c" x="-2.67" y="-2.83" transform="translate(300.71,362.77) rotate(-0.1)" width="5.34" height="5.66" rx="0.83"/>
<rect fill="#fe025c" x="-5.20" y="-3.04" transform="translate(321.22,362.86) rotate(0.4)" width="10.40" height="6.08" rx="0.88"/>
<path fill="#fe025c" d="
  M 259.03 360.44
  L 274.56 360.87
  L 252.80 396.49
  L 252.56 386.20
  Q 253.22 378.40 252.32 370.42
  L 259.03 360.44
  Z"
/>
<path fill="#3173bb" d="
  M 379.62 360.61
  Q 380.04 360.94 379.77 361.05
  L 379.84 369.91
  Q 379.12 370.61 377.74 370.39
  Q 376.30 370.15 375.72 370.17
  C 366.54 370.49 357.46 369.76 348.24 370.20
  C 349.14 368.03 348.19 364.64 348.41 362.23
  Q 348.46 361.73 348.97 361.71
  Q 362.63 361.35 375.73 361.21
  Q 377.93 361.19 379.62 360.61
  Z"
/>
<path fill="#feffff" d="
  M 411.70 367.98
  L 411.66 369.60
  L 379.84 369.91
  L 379.77 361.05
  Q 379.86 360.96 379.95 360.87
  Q 380.01 360.81 380.10 360.81
  Q 392.69 360.72 405.38 360.77
  Q 405.88 360.77 406.20 361.16
  L 411.70 367.98
  Z"
/>
<path fill="#feffff" d="
  M 421.01 361.14
  L 421.00 368.85
  A 0.42 0.42 0.0 0 1 420.57 369.27
  L 415.43 369.21
  A 0.42 0.42 0.0 0 1 415.02 368.77
  L 415.32 361.21
  A 0.42 0.42 0.0 0 1 415.74 360.80
  L 420.58 360.72
  A 0.42 0.42 0.0 0 1 421.01 361.14
  Z"
/>
<path fill="#3f3798" d="
  M 429.20 377.81
  L 426.51 377.41
  L 426.13 367.59
  Q 426.10 366.77 426.92 366.77
  L 435.15 366.76
  A 0.89 0.88 0.3 0 1 436.04 367.65
  L 435.93 376.06
  Q 435.90 378.11 433.85 378.02
  L 429.20 377.81
  Z"
/>
<path fill="#feffff" d="
  M 74.78 369.29
  L 74.84 377.68
  L 70.50 377.86
  Q 69.13 377.92 69.13 376.55
  L 69.11 370.46
  Q 69.11 369.05 70.51 369.11
  L 74.78 369.29
  Z"
/>
<path fill="#21d1eb" d="
  M 74.84 377.68
  L 74.78 369.29
  Q 76.93 368.80 79.16 369.05
  Q 79.79 369.12 79.78 369.74
  L 79.72 376.95
  Q 79.72 377.52 79.17 377.68
  Q 77.04 378.28 74.84 377.68
  Z"
/>
<path fill="#fe025c" d="
  M 99.18 378.10
  L 90.07 378.02
  Q 89.75 378.02 89.75 377.70
  L 89.78 369.41
  A 0.43 0.43 0.0 0 1 90.22 368.98
  L 98.48 369.27
  Q 99.11 369.29 99.11 369.92
  L 99.18 378.10
  Z"
/>
<path fill="#feffff" d="
  M 149.52 369.24
  L 149.49 377.97
  L 131.11 377.88
  Q 130.59 377.88 130.59 378.39
  L 130.52 387.04
  L 130.41 394.58
  A 0.63 0.63 0.0 0 1 129.78 395.20
  L 107.21 395.19
  L 107.28 378.20
  L 107.11 369.89
  Q 107.09 369.18 107.80 369.18
  L 112.44 369.19
  A 0.52 0.52 0.0 0 1 112.96 369.70
  L 113.00 377.47
  Q 113.01 377.93 113.47 377.95
  L 118.78 378.18
  Q 119.01 378.19 119.01 377.97
  L 118.89 369.76
  A 0.43 0.43 0.0 0 1 119.32 369.33
  L 149.52 369.24
  Z"
/>
<path fill="#fe025c" d="
  M 149.49 377.97
  L 149.52 369.24
  L 176.37 369.21
  Q 177.12 369.21 177.11 369.95
  L 176.99 377.21
  A 0.77 0.77 0.0 0 1 176.22 377.97
  L 149.49 377.97
  Z"
/>
<path fill="#21d1eb" d="
  M 411.66 369.60
  L 411.61 378.66
  Q 404.58 378.39 397.50 378.39
  Q 396.52 378.39 396.31 378.75
  Q 396.30 378.61 396.23 378.50
  Q 396.15 378.37 396.01 378.37
  L 348.07 378.34
  Q 348.86 375.04 348.24 370.20
  C 357.46 369.76 366.54 370.49 375.72 370.17
  Q 376.30 370.15 377.74 370.39
  Q 379.12 370.61 379.84 369.91
  L 411.66 369.60
  Z"
/>
<path fill="#3167b2" d="
  M 252.32 370.42
  Q 253.22 378.40 252.56 386.20
  L 251.97 372.39
  Q 252.44 371.29 252.32 370.42
  Z"
/>
<path fill="#341266" d="
  M 426.51 377.41
  L 429.20 377.81
  Q 428.78 378.11 428.89 378.67
  L 425.69 378.36
  Q 427.45 377.94 426.51 377.41
  Z"
/>
<path fill="#21d1eb" d="
  M 107.28 378.20
  L 107.21 395.19
  L 98.89 395.40
  L 99.18 378.10
  L 107.28 378.20
  Z"
/>
<path fill="#341266" d="
  M 149.49 377.97
  L 149.65 387.19
  L 130.52 387.04
  L 130.59 378.39
  Q 130.59 377.88 131.11 377.88
  L 149.49 377.97
  Z"
/>
<path fill="#feffff" d="
  M 348.07 378.34
  L 396.01 378.37
  Q 396.15 378.37 396.23 378.50
  Q 396.30 378.61 396.31 378.75
  L 396.29 402.49
  L 359.81 402.49
  L 359.87 386.89
  Q 359.87 386.37 359.35 386.36
  L 348.61 386.19
  L 328.53 386.23
  Q 328.01 386.23 328.00 385.70
  L 327.99 378.94
  Q 327.99 378.35 328.58 378.35
  L 348.07 378.34
  Z"
/>
<path fill="#feffff" d="
  M 425.69 378.36
  L 428.89 378.67
  L 428.76 385.71
  A 0.28 0.27 -88.9 0 1 428.49 385.98
  L 421.49 385.97
  Q 421.26 385.97 421.26 385.74
  L 421.23 379.02
  Q 421.22 378.50 421.74 378.48
  L 425.69 378.36
  Z"
/>
<path fill="#fe025c" d="
  M 411.61 378.66
  Q 412.23 380.35 411.51 382.04
  Q 411.32 382.48 410.83 382.49
  L 407.11 382.52
  A 0.69 0.69 0.0 0 0 406.43 383.27
  L 406.64 385.98
  Q 406.70 386.76 407.48 386.80
  L 410.21 386.92
  A 1.30 1.29 -88.8 0 1 411.44 388.21
  L 411.49 394.00
  Q 411.50 394.76 412.25 394.76
  L 417.98 394.78
  Q 419.05 394.78 419.07 395.85
  L 419.21 401.55
  Q 419.23 402.57 418.21 402.57
  L 396.29 402.49
  L 396.31 378.75
  Q 396.52 378.39 397.50 378.39
  Q 404.58 378.39 411.61 378.66
  Z"
/>
<path fill="#21d1eb" d="
  M 359.81 402.49
  L 349.08 402.61
  A 0.59 0.59 0.0 0 1 348.48 402.01
  L 348.61 386.19
  L 359.35 386.36
  Q 359.87 386.37 359.87 386.89
  L 359.81 402.49
  Z"
/>
<path fill="#fe025c" d="
  M 130.52 387.04
  L 149.65 387.19
  L 149.73 402.03
  A 0.50 0.50 0.0 0 1 149.23 402.53
  L 99.49 402.65
  A 0.70 0.69 -90.0 0 1 98.80 401.95
  L 98.89 395.40
  L 107.21 395.19
  L 129.78 395.20
  A 0.63 0.63 0.0 0 0 130.41 394.58
  L 130.52 387.04
  Z"
/>
</svg>
